<?xml version="1.0" encoding="utf-8"?>
<svg xmlns="http://www.w3.org/2000/svg" xmlns:xlink="http://www.w3.org/1999/xlink" width="1200" height="1200" viewBox="0 0 4800 4800">
<defs>
  <clipPath id="clip070">
    <rect x="0" y="0" width="4800" height="4800"/>
  </clipPath>
</defs>
<path clip-path="url(#clip070)" d="M0 4800 L4800 4800 L4800 0 L0 0  Z" fill="#ffffff" fill-rule="evenodd" fill-opacity="1"/>
<defs>
  <clipPath id="clip071">
    <rect x="960" y="480" width="3361" height="3361"/>
  </clipPath>
</defs>
<path clip-path="url(#clip070)" d="M800.321 4247.76 L4611.02 4247.76 L4611.02 488.492 L800.321 488.492  Z" fill="#ffffff" fill-rule="evenodd" fill-opacity="1"/>
<defs>
  <clipPath id="clip072">
    <rect x="800" y="488" width="3812" height="3760"/>
  </clipPath>
</defs>
<polyline clip-path="url(#clip072)" style="stroke:#000000; stroke-linecap:round; stroke-linejoin:round; stroke-width:2; stroke-opacity:0.1; fill:none" points="1006.59,4247.76 1006.59,488.492 "/>
<polyline clip-path="url(#clip072)" style="stroke:#000000; stroke-linecap:round; stroke-linejoin:round; stroke-width:2; stroke-opacity:0.1; fill:none" points="1631.29,4247.76 1631.29,488.492 "/>
<polyline clip-path="url(#clip072)" style="stroke:#000000; stroke-linecap:round; stroke-linejoin:round; stroke-width:2; stroke-opacity:0.1; fill:none" points="2255.99,4247.76 2255.99,488.492 "/>
<polyline clip-path="url(#clip072)" style="stroke:#000000; stroke-linecap:round; stroke-linejoin:round; stroke-width:2; stroke-opacity:0.1; fill:none" points="2880.69,4247.76 2880.69,488.492 "/>
<polyline clip-path="url(#clip072)" style="stroke:#000000; stroke-linecap:round; stroke-linejoin:round; stroke-width:2; stroke-opacity:0.1; fill:none" points="3505.39,4247.76 3505.39,488.492 "/>
<polyline clip-path="url(#clip072)" style="stroke:#000000; stroke-linecap:round; stroke-linejoin:round; stroke-width:2; stroke-opacity:0.1; fill:none" points="4130.09,4247.76 4130.09,488.492 "/>
<polyline clip-path="url(#clip072)" style="stroke:#000000; stroke-linecap:round; stroke-linejoin:round; stroke-width:2; stroke-opacity:0.1; fill:none" points="1006.59,4247.76 1006.59,488.492 "/>
<polyline clip-path="url(#clip072)" style="stroke:#000000; stroke-linecap:round; stroke-linejoin:round; stroke-width:2; stroke-opacity:0.1; fill:none" points="1631.29,4247.76 1631.29,488.492 "/>
<polyline clip-path="url(#clip072)" style="stroke:#000000; stroke-linecap:round; stroke-linejoin:round; stroke-width:2; stroke-opacity:0.1; fill:none" points="2255.99,4247.76 2255.99,488.492 "/>
<polyline clip-path="url(#clip072)" style="stroke:#000000; stroke-linecap:round; stroke-linejoin:round; stroke-width:2; stroke-opacity:0.1; fill:none" points="2880.69,4247.76 2880.69,488.492 "/>
<polyline clip-path="url(#clip072)" style="stroke:#000000; stroke-linecap:round; stroke-linejoin:round; stroke-width:2; stroke-opacity:0.1; fill:none" points="3505.39,4247.76 3505.39,488.492 "/>
<polyline clip-path="url(#clip072)" style="stroke:#000000; stroke-linecap:round; stroke-linejoin:round; stroke-width:2; stroke-opacity:0.1; fill:none" points="4130.09,4247.76 4130.09,488.492 "/>
<polyline clip-path="url(#clip070)" style="stroke:#000000; stroke-linecap:round; stroke-linejoin:round; stroke-width:4; stroke-opacity:1; fill:none" points="800.321,4247.76 4611.02,4247.76 "/>
<polyline clip-path="url(#clip070)" style="stroke:#000000; stroke-linecap:round; stroke-linejoin:round; stroke-width:4; stroke-opacity:1; fill:none" points="800.321,488.492 4611.02,488.492 "/>
<polyline clip-path="url(#clip070)" style="stroke:#000000; stroke-linecap:round; stroke-linejoin:round; stroke-width:4; stroke-opacity:1; fill:none" points="1006.59,4247.76 1006.59,4228.86 "/>
<polyline clip-path="url(#clip070)" style="stroke:#000000; stroke-linecap:round; stroke-linejoin:round; stroke-width:4; stroke-opacity:1; fill:none" points="1631.29,4247.76 1631.29,4228.86 "/>
<polyline clip-path="url(#clip070)" style="stroke:#000000; stroke-linecap:round; stroke-linejoin:round; stroke-width:4; stroke-opacity:1; fill:none" points="2255.99,4247.76 2255.99,4228.86 "/>
<polyline clip-path="url(#clip070)" style="stroke:#000000; stroke-linecap:round; stroke-linejoin:round; stroke-width:4; stroke-opacity:1; fill:none" points="2880.69,4247.76 2880.69,4228.86 "/>
<polyline clip-path="url(#clip070)" style="stroke:#000000; stroke-linecap:round; stroke-linejoin:round; stroke-width:4; stroke-opacity:1; fill:none" points="3505.39,4247.76 3505.39,4228.86 "/>
<polyline clip-path="url(#clip070)" style="stroke:#000000; stroke-linecap:round; stroke-linejoin:round; stroke-width:4; stroke-opacity:1; fill:none" points="4130.09,4247.76 4130.09,4228.86 "/>
<polyline clip-path="url(#clip070)" style="stroke:#000000; stroke-linecap:round; stroke-linejoin:round; stroke-width:4; stroke-opacity:1; fill:none" points="1006.59,488.492 1006.59,507.389 "/>
<polyline clip-path="url(#clip070)" style="stroke:#000000; stroke-linecap:round; stroke-linejoin:round; stroke-width:4; stroke-opacity:1; fill:none" points="1631.29,488.492 1631.29,507.389 "/>
<polyline clip-path="url(#clip070)" style="stroke:#000000; stroke-linecap:round; stroke-linejoin:round; stroke-width:4; stroke-opacity:1; fill:none" points="2255.99,488.492 2255.99,507.389 "/>
<polyline clip-path="url(#clip070)" style="stroke:#000000; stroke-linecap:round; stroke-linejoin:round; stroke-width:4; stroke-opacity:1; fill:none" points="2880.69,488.492 2880.69,507.389 "/>
<polyline clip-path="url(#clip070)" style="stroke:#000000; stroke-linecap:round; stroke-linejoin:round; stroke-width:4; stroke-opacity:1; fill:none" points="3505.39,488.492 3505.39,507.389 "/>
<polyline clip-path="url(#clip070)" style="stroke:#000000; stroke-linecap:round; stroke-linejoin:round; stroke-width:4; stroke-opacity:1; fill:none" points="4130.09,488.492 4130.09,507.389 "/>
<g clip-path="url(#clip070)">
<text style="fill:#000000; fill-opacity:1; font-family:Courier,Courier New,Lucida Sans Typewriter,Lucida Typewriter,monospace; font-size:163px; text-anchor:middle;" transform="rotate(0, 1006.59, 4404.6)" x="1006.59" y="4404.6">−20</text>
</g>
<g clip-path="url(#clip070)">
<text style="fill:#000000; fill-opacity:1; font-family:Courier,Courier New,Lucida Sans Typewriter,Lucida Typewriter,monospace; font-size:163px; text-anchor:middle;" transform="rotate(0, 1631.29, 4404.6)" x="1631.29" y="4404.6">−10</text>
</g>
<g clip-path="url(#clip070)">
<text style="fill:#000000; fill-opacity:1; font-family:Courier,Courier New,Lucida Sans Typewriter,Lucida Typewriter,monospace; font-size:163px; text-anchor:middle;" transform="rotate(0, 2255.99, 4404.6)" x="2255.99" y="4404.6">0</text>
</g>
<g clip-path="url(#clip070)">
<text style="fill:#000000; fill-opacity:1; font-family:Courier,Courier New,Lucida Sans Typewriter,Lucida Typewriter,monospace; font-size:163px; text-anchor:middle;" transform="rotate(0, 2880.69, 4404.6)" x="2880.69" y="4404.6">10</text>
</g>
<g clip-path="url(#clip070)">
<text style="fill:#000000; fill-opacity:1; font-family:Courier,Courier New,Lucida Sans Typewriter,Lucida Typewriter,monospace; font-size:163px; text-anchor:middle;" transform="rotate(0, 3505.39, 4404.6)" x="3505.39" y="4404.6">20</text>
</g>
<g clip-path="url(#clip070)">
<text style="fill:#000000; fill-opacity:1; font-family:Courier,Courier New,Lucida Sans Typewriter,Lucida Typewriter,monospace; font-size:163px; text-anchor:middle;" transform="rotate(0, 4130.09, 4404.6)" x="4130.09" y="4404.6">30</text>
</g>
<g clip-path="url(#clip070)">
<text style="fill:#000000; fill-opacity:1; font-family:Courier,Courier New,Lucida Sans Typewriter,Lucida Typewriter,monospace; font-size:163px; text-anchor:middle;" transform="rotate(0, 2705.67, 4584.53)" x="2705.67" y="4584.53">Allocated avoided cost (EUR/h)</text>
</g>
<polyline clip-path="url(#clip072)" style="stroke:#000000; stroke-linecap:round; stroke-linejoin:round; stroke-width:2; stroke-opacity:0.1; fill:none" points="800.321,4247.76 4611.02,4247.76 "/>
<polyline clip-path="url(#clip072)" style="stroke:#000000; stroke-linecap:round; stroke-linejoin:round; stroke-width:2; stroke-opacity:0.1; fill:none" points="800.321,2994.67 4611.02,2994.67 "/>
<polyline clip-path="url(#clip072)" style="stroke:#000000; stroke-linecap:round; stroke-linejoin:round; stroke-width:2; stroke-opacity:0.1; fill:none" points="800.321,1741.58 4611.02,1741.58 "/>
<polyline clip-path="url(#clip072)" style="stroke:#000000; stroke-linecap:round; stroke-linejoin:round; stroke-width:2; stroke-opacity:0.1; fill:none" points="800.321,488.492 4611.02,488.492 "/>
<polyline clip-path="url(#clip072)" style="stroke:#000000; stroke-linecap:round; stroke-linejoin:round; stroke-width:2; stroke-opacity:0.1; fill:none" points="800.321,4247.76 4611.02,4247.76 "/>
<polyline clip-path="url(#clip072)" style="stroke:#000000; stroke-linecap:round; stroke-linejoin:round; stroke-width:2; stroke-opacity:0.1; fill:none" points="800.321,2994.67 4611.02,2994.67 "/>
<polyline clip-path="url(#clip072)" style="stroke:#000000; stroke-linecap:round; stroke-linejoin:round; stroke-width:2; stroke-opacity:0.1; fill:none" points="800.321,1741.58 4611.02,1741.58 "/>
<polyline clip-path="url(#clip072)" style="stroke:#000000; stroke-linecap:round; stroke-linejoin:round; stroke-width:2; stroke-opacity:0.1; fill:none" points="800.321,488.492 4611.02,488.492 "/>
<polyline clip-path="url(#clip070)" style="stroke:#000000; stroke-linecap:round; stroke-linejoin:round; stroke-width:4; stroke-opacity:1; fill:none" points="800.321,4247.76 800.321,488.492 "/>
<polyline clip-path="url(#clip070)" style="stroke:#000000; stroke-linecap:round; stroke-linejoin:round; stroke-width:4; stroke-opacity:1; fill:none" points="4611.02,4247.76 4611.02,488.492 "/>
<polyline clip-path="url(#clip070)" style="stroke:#000000; stroke-linecap:round; stroke-linejoin:round; stroke-width:4; stroke-opacity:1; fill:none" points="800.321,4247.76 819.219,4247.76 "/>
<polyline clip-path="url(#clip070)" style="stroke:#000000; stroke-linecap:round; stroke-linejoin:round; stroke-width:4; stroke-opacity:1; fill:none" points="800.321,2994.67 819.219,2994.67 "/>
<polyline clip-path="url(#clip070)" style="stroke:#000000; stroke-linecap:round; stroke-linejoin:round; stroke-width:4; stroke-opacity:1; fill:none" points="800.321,1741.58 819.219,1741.58 "/>
<polyline clip-path="url(#clip070)" style="stroke:#000000; stroke-linecap:round; stroke-linejoin:round; stroke-width:4; stroke-opacity:1; fill:none" points="800.321,488.492 819.219,488.492 "/>
<polyline clip-path="url(#clip070)" style="stroke:#000000; stroke-linecap:round; stroke-linejoin:round; stroke-width:4; stroke-opacity:1; fill:none" points="4611.02,4247.76 4592.13,4247.76 "/>
<polyline clip-path="url(#clip070)" style="stroke:#000000; stroke-linecap:round; stroke-linejoin:round; stroke-width:4; stroke-opacity:1; fill:none" points="4611.02,2994.67 4592.13,2994.67 "/>
<polyline clip-path="url(#clip070)" style="stroke:#000000; stroke-linecap:round; stroke-linejoin:round; stroke-width:4; stroke-opacity:1; fill:none" points="4611.02,1741.58 4592.13,1741.58 "/>
<polyline clip-path="url(#clip070)" style="stroke:#000000; stroke-linecap:round; stroke-linejoin:round; stroke-width:4; stroke-opacity:1; fill:none" points="4611.02,488.492 4592.13,488.492 "/>
<g clip-path="url(#clip070)">
<text style="fill:#000000; fill-opacity:1; font-family:Courier,Courier New,Lucida Sans Typewriter,Lucida Typewriter,monospace; font-size:163px; text-anchor:middle;" transform="rotate(0, 525.389, 4295.26)" x="525.389" y="4295.26">0.00</text>
</g>
<g clip-path="url(#clip070)">
<text style="fill:#000000; fill-opacity:1; font-family:Courier,Courier New,Lucida Sans Typewriter,Lucida Typewriter,monospace; font-size:163px; text-anchor:middle;" transform="rotate(0, 525.389, 3042.17)" x="525.389" y="3042.17">0.05</text>
</g>
<g clip-path="url(#clip070)">
<text style="fill:#000000; fill-opacity:1; font-family:Courier,Courier New,Lucida Sans Typewriter,Lucida Typewriter,monospace; font-size:163px; text-anchor:middle;" transform="rotate(0, 525.389, 1789.08)" x="525.389" y="1789.08">0.10</text>
</g>
<g clip-path="url(#clip070)">
<text style="fill:#000000; fill-opacity:1; font-family:Courier,Courier New,Lucida Sans Typewriter,Lucida Typewriter,monospace; font-size:163px; text-anchor:middle;" transform="rotate(0, 525.389, 535.992)" x="525.389" y="535.992">0.15</text>
</g>
<g clip-path="url(#clip070)">
<text style="fill:#000000; fill-opacity:1; font-family:Courier,Courier New,Lucida Sans Typewriter,Lucida Typewriter,monospace; font-size:163px; text-anchor:start;" transform="rotate(0, 879.281, 146.818)" x="879.281" y="146.818">Density of the allocation solutions </text>
</g>
<g clip-path="url(#clip070)">
<text style="fill:#000000; fill-opacity:1; font-family:Courier,Courier New,Lucida Sans Typewriter,Lucida Typewriter,monospace; font-size:163px; text-anchor:start;" transform="rotate(0, 1944.68, 288.702)" x="1944.68" y="288.702">(Shapley value)</text>
</g>
<path clip-path="url(#clip072)" d="M2125.87 4247.74 L2135.54 4247.73 L2145.2 4247.69 L2154.87 4247.61 L2164.54 4247.44 L2174.2 4247.11 L2183.87 4246.48 L2193.54 4245.34 L2203.2 4243.38 L2212.87 4240.12 L2222.54 4234.93 L2232.2 4226.96 L2241.87 4215.19 L2251.54 4198.37 L2261.2 4175.14 L2270.87 4144.03 L2280.54 4103.66 L2290.2 4052.88 L2299.87 3991.01 L2309.54 3918.19 L2319.2 3835.65 L2328.87 3746.02 L2338.54 3653.39 L2348.21 3563.21 L2357.87 3481.81 L2367.54 3415.64 L2377.21 3370.34 L2386.87 3349.77 L2396.54 3355.31 L2406.21 3385.47 L2415.87 3436.14 L2425.54 3501.2 L2435.21 3573.49 L2444.87 3645.87 L2454.54 3712.18 L2464.21 3767.87 L2473.87 3810.3 L2483.54 3838.63 L2493.21 3853.54 L2502.87 3856.73 L2512.54 3850.44 L2522.21 3837.03 L2531.87 3818.71 L2541.54 3797.32 L2551.21 3774.35 L2560.87 3750.94 L2570.54 3727.96 L2580.21 3706.11 L2589.87 3686.03 L2599.54 3668.37 L2609.21 3653.79 L2618.87 3642.99 L2628.54 3636.53 L2638.21 3634.72 L2647.88 3637.5 L2657.54 3644.32 L2667.21 3654.18 L2676.88 3665.73 L2686.54 3677.54 L2696.21 3688.29 L2705.88 3697.02 L2715.54 3703.24 L2725.21 3707.03 L2734.88 3708.89 L2744.54 3709.58 L2754.21 3709.87 L2763.88 3710.37 L2773.54 3711.3 L2783.21 3712.52 L2792.88 3713.59 L2802.54 3713.95 L2812.21 3713.11 L2821.88 3710.83 L2831.54 3707.15 L2841.21 3702.36 L2850.88 3696.85 L2860.54 3691.03 L2870.21 3685.16 L2879.88 3679.35 L2889.54 3673.59 L2899.21 3667.78 L2908.88 3661.88 L2918.54 3655.89 L2928.21 3649.93 L2937.88 3644.12 L2947.55 3638.53 L2957.21 3633 L2966.88 3627.1 L2976.55 3620 L2986.21 3610.64 L2995.88 3597.83 L3005.55 3580.59 L3015.21 3558.41 L3024.88 3531.54 L3034.55 3501.02 L3044.21 3468.68 L3053.88 3436.8 L3063.55 3407.74 L3073.21 3383.54 L3082.88 3365.55 L3092.55 3354.2 L3102.21 3349.01 L3111.88 3348.64 L3121.55 3351.19 L3131.21 3354.45 L3140.88 3356.28 L3150.55 3354.89 L3160.21 3349.07 L3169.88 3338.37 L3179.55 3323.04 L3189.21 3303.91 L3198.88 3282.11 L3208.55 3258.78 L3218.21 3234.76 L3227.88 3210.43 L3237.55 3185.65 L3247.21 3159.91 L3256.88 3132.56 L3266.55 3103.01 L3276.22 3070.91 L3285.88 3036.15 L3295.55 2998.72 L3305.22 2958.56 L3314.88 2915.34 L3324.55 2868.49 L3334.22 2817.25 L3343.88 2761.03 L3353.55 2699.66 L3363.22 2633.68 L3372.88 2564.53 L3382.55 2494.4 L3392.22 2425.96 L3401.88 2361.99 L3411.55 2304.92 L3421.22 2256.46 L3430.88 2217.44 L3440.55 2187.76 L3450.22 2166.51 L3459.88 2152.18 L3469.55 2142.96 L3479.22 2137.04 L3488.88 2132.97 L3498.55 2129.9 L3508.22 2127.81 L3517.88 2127.53 L3527.55 2130.6 L3537.22 2138.96 L3546.88 2154.59 L3556.55 2179.23 L3566.22 2214.09 L3575.89 2259.7 L3585.55 2315.93 L3595.22 2381.91 L3604.89 2456.06 L3614.55 2536.19 L3624.22 2619.56 L3633.89 2703.14 L3643.55 2783.84 L3653.22 2858.84 L3662.89 2925.89 L3672.55 2983.51 L3682.22 3031.05 L3691.89 3068.69 L3701.55 3097.31 L3711.22 3118.38 L3720.89 3133.76 L3730.55 3145.6 L3740.22 3156.2 L3749.89 3167.88 L3759.55 3182.86 L3769.22 3203.11 L3778.89 3230.23 L3788.55 3265.4 L3798.22 3309.34 L3807.89 3362.3 L3817.55 3424.07 L3827.22 3493.95 L3836.89 3570.66 L3846.55 3652.31 L3856.22 3736.43 L3865.89 3820.09 L3875.56 3900.24 L3885.22 3974.02 L3894.89 4039.17 L3904.56 4094.26 L3914.22 4138.83 L3923.89 4173.32 L3933.56 4198.81 L3943.22 4216.82 L3952.89 4228.97 L3962.56 4236.8 L3972.22 4241.63 L3981.89 4244.47 L3991.56 4246.07 L4001.22 4246.92 L4010.89 4247.36 L4020.56 4247.58 L4030.22 4247.68 L4039.89 4247.73 L4049.56 4247.74 L4049.56 4247.76 L4039.89 4247.76 L4030.22 4247.76 L4020.56 4247.76 L4010.89 4247.76 L4001.22 4247.76 L3991.56 4247.76 L3981.89 4247.76 L3972.22 4247.76 L3962.56 4247.76 L3952.89 4247.76 L3943.22 4247.76 L3933.56 4247.76 L3923.89 4247.76 L3914.22 4247.76 L3904.56 4247.76 L3894.89 4247.76 L3885.22 4247.76 L3875.56 4247.76 L3865.89 4247.76 L3856.22 4247.76 L3846.55 4247.76 L3836.89 4247.76 L3827.22 4247.76 L3817.55 4247.76 L3807.89 4247.76 L3798.22 4247.76 L3788.55 4247.76 L3778.89 4247.76 L3769.22 4247.76 L3759.55 4247.76 L3749.89 4247.76 L3740.22 4247.76 L3730.55 4247.76 L3720.89 4247.76 L3711.22 4247.76 L3701.55 4247.76 L3691.89 4247.76 L3682.22 4247.76 L3672.55 4247.76 L3662.89 4247.76 L3653.22 4247.76 L3643.55 4247.76 L3633.89 4247.76 L3624.22 4247.76 L3614.55 4247.76 L3604.89 4247.76 L3595.22 4247.76 L3585.55 4247.76 L3575.89 4247.76 L3566.22 4247.76 L3556.55 4247.76 L3546.88 4247.76 L3537.22 4247.76 L3527.55 4247.76 L3517.88 4247.76 L3508.22 4247.76 L3498.55 4247.76 L3488.88 4247.76 L3479.22 4247.76 L3469.55 4247.76 L3459.88 4247.76 L3450.22 4247.76 L3440.55 4247.76 L3430.88 4247.76 L3421.22 4247.76 L3411.55 4247.76 L3401.88 4247.76 L3392.22 4247.76 L3382.55 4247.76 L3372.88 4247.76 L3363.22 4247.76 L3353.55 4247.76 L3343.88 4247.76 L3334.22 4247.76 L3324.55 4247.76 L3314.88 4247.76 L3305.22 4247.76 L3295.55 4247.76 L3285.88 4247.76 L3276.22 4247.76 L3266.55 4247.76 L3256.88 4247.76 L3247.21 4247.76 L3237.55 4247.76 L3227.88 4247.76 L3218.21 4247.76 L3208.55 4247.76 L3198.88 4247.76 L3189.21 4247.76 L3179.55 4247.76 L3169.88 4247.76 L3160.21 4247.76 L3150.55 4247.76 L3140.88 4247.76 L3131.21 4247.76 L3121.55 4247.76 L3111.88 4247.76 L3102.21 4247.76 L3092.55 4247.76 L3082.88 4247.76 L3073.21 4247.76 L3063.55 4247.76 L3053.88 4247.76 L3044.21 4247.76 L3034.55 4247.76 L3024.88 4247.76 L3015.21 4247.76 L3005.55 4247.76 L2995.88 4247.76 L2986.21 4247.76 L2976.55 4247.76 L2966.88 4247.76 L2957.21 4247.76 L2947.55 4247.76 L2937.88 4247.76 L2928.21 4247.76 L2918.54 4247.76 L2908.88 4247.76 L2899.21 4247.76 L2889.54 4247.76 L2879.88 4247.76 L2870.21 4247.76 L2860.54 4247.76 L2850.88 4247.76 L2841.21 4247.76 L2831.54 4247.76 L2821.88 4247.76 L2812.21 4247.76 L2802.54 4247.76 L2792.88 4247.76 L2783.21 4247.76 L2773.54 4247.76 L2763.88 4247.76 L2754.21 4247.76 L2744.54 4247.76 L2734.88 4247.76 L2725.21 4247.76 L2715.54 4247.76 L2705.88 4247.76 L2696.21 4247.76 L2686.54 4247.76 L2676.88 4247.76 L2667.21 4247.76 L2657.54 4247.76 L2647.88 4247.76 L2638.21 4247.76 L2628.54 4247.76 L2618.87 4247.76 L2609.21 4247.76 L2599.54 4247.76 L2589.87 4247.76 L2580.21 4247.76 L2570.54 4247.76 L2560.87 4247.76 L2551.21 4247.76 L2541.54 4247.76 L2531.87 4247.76 L2522.21 4247.76 L2512.54 4247.76 L2502.87 4247.76 L2493.21 4247.76 L2483.54 4247.76 L2473.87 4247.76 L2464.21 4247.76 L2454.54 4247.76 L2444.87 4247.76 L2435.21 4247.76 L2425.54 4247.76 L2415.87 4247.76 L2406.21 4247.76 L2396.54 4247.76 L2386.87 4247.76 L2377.21 4247.76 L2367.54 4247.76 L2357.87 4247.76 L2348.21 4247.76 L2338.54 4247.76 L2328.87 4247.76 L2319.2 4247.76 L2309.54 4247.76 L2299.87 4247.76 L2290.2 4247.76 L2280.54 4247.76 L2270.87 4247.76 L2261.2 4247.76 L2251.54 4247.76 L2241.87 4247.76 L2232.2 4247.76 L2222.54 4247.76 L2212.87 4247.76 L2203.2 4247.76 L2193.54 4247.76 L2183.87 4247.76 L2174.2 4247.76 L2164.54 4247.76 L2154.87 4247.76 L2145.2 4247.76 L2135.54 4247.76 L2125.87 4247.76  Z" fill="#9466bd" fill-rule="evenodd" fill-opacity="0.4"/>
<polyline clip-path="url(#clip072)" style="stroke:#9466bd; stroke-linecap:round; stroke-linejoin:round; stroke-width:24; stroke-opacity:1; fill:none" points="2125.87,4247.74 2135.54,4247.73 2145.2,4247.69 2154.87,4247.61 2164.54,4247.44 2174.2,4247.11 2183.87,4246.48 2193.54,4245.34 2203.2,4243.38 2212.87,4240.12 2222.54,4234.93 2232.2,4226.96 2241.87,4215.19 2251.54,4198.37 2261.2,4175.14 2270.87,4144.03 2280.54,4103.66 2290.2,4052.88 2299.87,3991.01 2309.54,3918.19 2319.2,3835.65 2328.87,3746.02 2338.54,3653.39 2348.21,3563.21 2357.87,3481.81 2367.54,3415.64 2377.21,3370.34 2386.87,3349.77 2396.54,3355.31 2406.21,3385.47 2415.87,3436.14 2425.54,3501.2 2435.21,3573.49 2444.87,3645.87 2454.54,3712.18 2464.21,3767.87 2473.87,3810.3 2483.54,3838.63 2493.21,3853.54 2502.87,3856.73 2512.54,3850.44 2522.21,3837.03 2531.87,3818.71 2541.54,3797.32 2551.21,3774.35 2560.87,3750.94 2570.54,3727.96 2580.21,3706.11 2589.87,3686.03 2599.54,3668.37 2609.21,3653.79 2618.87,3642.99 2628.54,3636.53 2638.21,3634.72 2647.88,3637.5 2657.54,3644.32 2667.21,3654.18 2676.88,3665.73 2686.54,3677.54 2696.21,3688.29 2705.88,3697.02 2715.54,3703.24 2725.21,3707.03 2734.88,3708.89 2744.54,3709.58 2754.21,3709.87 2763.88,3710.37 2773.54,3711.3 2783.21,3712.52 2792.88,3713.59 2802.54,3713.95 2812.21,3713.11 2821.88,3710.83 2831.54,3707.15 2841.21,3702.36 2850.88,3696.85 2860.54,3691.03 2870.21,3685.16 2879.88,3679.35 2889.54,3673.59 2899.21,3667.78 2908.88,3661.88 2918.54,3655.89 2928.21,3649.93 2937.88,3644.12 2947.55,3638.53 2957.21,3633 2966.88,3627.1 2976.55,3620 2986.21,3610.64 2995.88,3597.83 3005.55,3580.59 3015.21,3558.41 3024.88,3531.54 3034.55,3501.02 3044.21,3468.68 3053.88,3436.8 3063.55,3407.74 3073.21,3383.54 3082.88,3365.55 3092.55,3354.2 3102.21,3349.01 3111.88,3348.64 3121.55,3351.19 3131.21,3354.45 3140.88,3356.28 3150.55,3354.89 3160.21,3349.07 3169.88,3338.37 3179.55,3323.04 3189.21,3303.91 3198.88,3282.11 3208.55,3258.78 3218.21,3234.76 3227.88,3210.43 3237.55,3185.65 3247.21,3159.91 3256.88,3132.56 3266.55,3103.01 3276.22,3070.91 3285.88,3036.15 3295.55,2998.72 3305.22,2958.56 3314.88,2915.34 3324.55,2868.49 3334.22,2817.25 3343.88,2761.03 3353.55,2699.66 3363.22,2633.68 3372.88,2564.53 3382.55,2494.4 3392.22,2425.96 3401.88,2361.99 3411.55,2304.92 3421.22,2256.46 3430.88,2217.44 3440.55,2187.76 3450.22,2166.51 3459.88,2152.18 3469.55,2142.96 3479.22,2137.04 3488.88,2132.97 3498.55,2129.9 3508.22,2127.81 3517.88,2127.53 3527.55,2130.6 3537.22,2138.96 3546.88,2154.59 3556.55,2179.23 3566.22,2214.09 3575.89,2259.7 3585.55,2315.93 3595.22,2381.91 3604.89,2456.06 3614.55,2536.19 3624.22,2619.56 3633.89,2703.14 3643.55,2783.84 3653.22,2858.84 3662.89,2925.89 3672.55,2983.51 3682.22,3031.05 3691.89,3068.69 3701.55,3097.31 3711.22,3118.38 3720.89,3133.76 3730.55,3145.6 3740.22,3156.2 3749.89,3167.88 3759.55,3182.86 3769.22,3203.11 3778.89,3230.23 3788.55,3265.4 3798.22,3309.34 3807.89,3362.3 3817.55,3424.07 3827.22,3493.95 3836.89,3570.66 3846.55,3652.31 3856.22,3736.43 3865.89,3820.09 3875.56,3900.24 3885.22,3974.02 3894.89,4039.17 3904.56,4094.26 3914.22,4138.83 3923.89,4173.32 3933.56,4198.81 3943.22,4216.82 3952.89,4228.97 3962.56,4236.8 3972.22,4241.63 3981.89,4244.47 3991.56,4246.07 4001.22,4246.92 4010.89,4247.36 4020.56,4247.58 4030.22,4247.68 4039.89,4247.73 4049.56,4247.74 "/>
<path clip-path="url(#clip070)" d="M3494.13 897.568 L4484 897.568 L4484 613.8 L3494.13 613.8  Z" fill="#ffffff" fill-rule="evenodd" fill-opacity="1"/>
<polyline clip-path="url(#clip070)" style="stroke:#000000; stroke-linecap:round; stroke-linejoin:round; stroke-width:4; stroke-opacity:1; fill:none" points="3494.13,897.568 4484,897.568 4484,613.8 3494.13,613.8 3494.13,897.568 "/>
<path clip-path="url(#clip070)" d="M3536.47 812.437 L3790.52 812.437 L3790.52 698.931 L3536.47 698.931 L3536.47 812.437  Z" fill="#9466bd" fill-rule="evenodd" fill-opacity="0.4"/>
<polyline clip-path="url(#clip070)" style="stroke:#9466bd; stroke-linecap:round; stroke-linejoin:round; stroke-width:55; stroke-opacity:1; fill:none" points="3536.47,698.931 3790.52,698.931 "/>
<g clip-path="url(#clip070)">
<text style="fill:#000000; fill-opacity:1; font-family:Courier,Courier New,Lucida Sans Typewriter,Lucida Typewriter,monospace; font-size:163px; text-anchor:start;" transform="rotate(0, 3832.86, 803.184)" x="3832.86" y="803.184">EVA 14</text>
</g>
</svg>
