<?xml version="1.0" encoding="utf-8"?>
<svg xmlns="http://www.w3.org/2000/svg" xmlns:xlink="http://www.w3.org/1999/xlink" width="1200" height="1200" viewBox="0 0 4800 4800">
<defs>
  <clipPath id="clip470">
    <rect x="0" y="0" width="4800" height="4800"/>
  </clipPath>
</defs>
<path clip-path="url(#clip470)" d="M0 4800 L4800 4800 L4800 0 L0 0  Z" fill="#ffffff" fill-rule="evenodd" fill-opacity="1"/>
<defs>
  <clipPath id="clip471">
    <rect x="960" y="480" width="3361" height="3361"/>
  </clipPath>
</defs>
<path clip-path="url(#clip470)" d="M800.321 4247.76 L4611.02 4247.76 L4611.02 488.492 L800.321 488.492  Z" fill="#ffffff" fill-rule="evenodd" fill-opacity="1"/>
<defs>
  <clipPath id="clip472">
    <rect x="800" y="488" width="3812" height="3760"/>
  </clipPath>
</defs>
<polyline clip-path="url(#clip472)" style="stroke:#000000; stroke-linecap:round; stroke-linejoin:round; stroke-width:2; stroke-opacity:0.1; fill:none" points="1006.59,4247.76 1006.59,488.492 "/>
<polyline clip-path="url(#clip472)" style="stroke:#000000; stroke-linecap:round; stroke-linejoin:round; stroke-width:2; stroke-opacity:0.1; fill:none" points="1631.29,4247.76 1631.29,488.492 "/>
<polyline clip-path="url(#clip472)" style="stroke:#000000; stroke-linecap:round; stroke-linejoin:round; stroke-width:2; stroke-opacity:0.1; fill:none" points="2255.99,4247.76 2255.99,488.492 "/>
<polyline clip-path="url(#clip472)" style="stroke:#000000; stroke-linecap:round; stroke-linejoin:round; stroke-width:2; stroke-opacity:0.1; fill:none" points="2880.69,4247.76 2880.69,488.492 "/>
<polyline clip-path="url(#clip472)" style="stroke:#000000; stroke-linecap:round; stroke-linejoin:round; stroke-width:2; stroke-opacity:0.1; fill:none" points="3505.39,4247.76 3505.39,488.492 "/>
<polyline clip-path="url(#clip472)" style="stroke:#000000; stroke-linecap:round; stroke-linejoin:round; stroke-width:2; stroke-opacity:0.1; fill:none" points="4130.09,4247.76 4130.09,488.492 "/>
<polyline clip-path="url(#clip472)" style="stroke:#000000; stroke-linecap:round; stroke-linejoin:round; stroke-width:2; stroke-opacity:0.1; fill:none" points="1006.59,4247.76 1006.59,488.492 "/>
<polyline clip-path="url(#clip472)" style="stroke:#000000; stroke-linecap:round; stroke-linejoin:round; stroke-width:2; stroke-opacity:0.1; fill:none" points="1631.29,4247.76 1631.29,488.492 "/>
<polyline clip-path="url(#clip472)" style="stroke:#000000; stroke-linecap:round; stroke-linejoin:round; stroke-width:2; stroke-opacity:0.1; fill:none" points="2255.99,4247.76 2255.99,488.492 "/>
<polyline clip-path="url(#clip472)" style="stroke:#000000; stroke-linecap:round; stroke-linejoin:round; stroke-width:2; stroke-opacity:0.1; fill:none" points="2880.69,4247.76 2880.69,488.492 "/>
<polyline clip-path="url(#clip472)" style="stroke:#000000; stroke-linecap:round; stroke-linejoin:round; stroke-width:2; stroke-opacity:0.1; fill:none" points="3505.39,4247.76 3505.39,488.492 "/>
<polyline clip-path="url(#clip472)" style="stroke:#000000; stroke-linecap:round; stroke-linejoin:round; stroke-width:2; stroke-opacity:0.1; fill:none" points="4130.09,4247.76 4130.09,488.492 "/>
<polyline clip-path="url(#clip470)" style="stroke:#000000; stroke-linecap:round; stroke-linejoin:round; stroke-width:4; stroke-opacity:1; fill:none" points="800.321,4247.76 4611.02,4247.76 "/>
<polyline clip-path="url(#clip470)" style="stroke:#000000; stroke-linecap:round; stroke-linejoin:round; stroke-width:4; stroke-opacity:1; fill:none" points="800.321,488.492 4611.02,488.492 "/>
<polyline clip-path="url(#clip470)" style="stroke:#000000; stroke-linecap:round; stroke-linejoin:round; stroke-width:4; stroke-opacity:1; fill:none" points="1006.59,4247.76 1006.59,4228.86 "/>
<polyline clip-path="url(#clip470)" style="stroke:#000000; stroke-linecap:round; stroke-linejoin:round; stroke-width:4; stroke-opacity:1; fill:none" points="1631.29,4247.76 1631.29,4228.86 "/>
<polyline clip-path="url(#clip470)" style="stroke:#000000; stroke-linecap:round; stroke-linejoin:round; stroke-width:4; stroke-opacity:1; fill:none" points="2255.99,4247.76 2255.99,4228.86 "/>
<polyline clip-path="url(#clip470)" style="stroke:#000000; stroke-linecap:round; stroke-linejoin:round; stroke-width:4; stroke-opacity:1; fill:none" points="2880.69,4247.76 2880.69,4228.86 "/>
<polyline clip-path="url(#clip470)" style="stroke:#000000; stroke-linecap:round; stroke-linejoin:round; stroke-width:4; stroke-opacity:1; fill:none" points="3505.39,4247.76 3505.39,4228.86 "/>
<polyline clip-path="url(#clip470)" style="stroke:#000000; stroke-linecap:round; stroke-linejoin:round; stroke-width:4; stroke-opacity:1; fill:none" points="4130.09,4247.76 4130.09,4228.86 "/>
<polyline clip-path="url(#clip470)" style="stroke:#000000; stroke-linecap:round; stroke-linejoin:round; stroke-width:4; stroke-opacity:1; fill:none" points="1006.59,488.492 1006.59,507.389 "/>
<polyline clip-path="url(#clip470)" style="stroke:#000000; stroke-linecap:round; stroke-linejoin:round; stroke-width:4; stroke-opacity:1; fill:none" points="1631.29,488.492 1631.29,507.389 "/>
<polyline clip-path="url(#clip470)" style="stroke:#000000; stroke-linecap:round; stroke-linejoin:round; stroke-width:4; stroke-opacity:1; fill:none" points="2255.99,488.492 2255.99,507.389 "/>
<polyline clip-path="url(#clip470)" style="stroke:#000000; stroke-linecap:round; stroke-linejoin:round; stroke-width:4; stroke-opacity:1; fill:none" points="2880.69,488.492 2880.69,507.389 "/>
<polyline clip-path="url(#clip470)" style="stroke:#000000; stroke-linecap:round; stroke-linejoin:round; stroke-width:4; stroke-opacity:1; fill:none" points="3505.39,488.492 3505.39,507.389 "/>
<polyline clip-path="url(#clip470)" style="stroke:#000000; stroke-linecap:round; stroke-linejoin:round; stroke-width:4; stroke-opacity:1; fill:none" points="4130.09,488.492 4130.09,507.389 "/>
<g clip-path="url(#clip470)">
<text style="fill:#000000; fill-opacity:1; font-family:Courier,Courier New,Lucida Sans Typewriter,Lucida Typewriter,monospace; font-size:163px; text-anchor:middle;" transform="rotate(0, 1006.59, 4404.6)" x="1006.59" y="4404.6">−20</text>
</g>
<g clip-path="url(#clip470)">
<text style="fill:#000000; fill-opacity:1; font-family:Courier,Courier New,Lucida Sans Typewriter,Lucida Typewriter,monospace; font-size:163px; text-anchor:middle;" transform="rotate(0, 1631.29, 4404.6)" x="1631.29" y="4404.6">−10</text>
</g>
<g clip-path="url(#clip470)">
<text style="fill:#000000; fill-opacity:1; font-family:Courier,Courier New,Lucida Sans Typewriter,Lucida Typewriter,monospace; font-size:163px; text-anchor:middle;" transform="rotate(0, 2255.99, 4404.6)" x="2255.99" y="4404.6">0</text>
</g>
<g clip-path="url(#clip470)">
<text style="fill:#000000; fill-opacity:1; font-family:Courier,Courier New,Lucida Sans Typewriter,Lucida Typewriter,monospace; font-size:163px; text-anchor:middle;" transform="rotate(0, 2880.69, 4404.6)" x="2880.69" y="4404.6">10</text>
</g>
<g clip-path="url(#clip470)">
<text style="fill:#000000; fill-opacity:1; font-family:Courier,Courier New,Lucida Sans Typewriter,Lucida Typewriter,monospace; font-size:163px; text-anchor:middle;" transform="rotate(0, 3505.39, 4404.6)" x="3505.39" y="4404.6">20</text>
</g>
<g clip-path="url(#clip470)">
<text style="fill:#000000; fill-opacity:1; font-family:Courier,Courier New,Lucida Sans Typewriter,Lucida Typewriter,monospace; font-size:163px; text-anchor:middle;" transform="rotate(0, 4130.09, 4404.6)" x="4130.09" y="4404.6">30</text>
</g>
<g clip-path="url(#clip470)">
<text style="fill:#000000; fill-opacity:1; font-family:Courier,Courier New,Lucida Sans Typewriter,Lucida Typewriter,monospace; font-size:163px; text-anchor:middle;" transform="rotate(0, 2705.67, 4584.53)" x="2705.67" y="4584.53">Allocated avoided cost (EUR/h)</text>
</g>
<polyline clip-path="url(#clip472)" style="stroke:#000000; stroke-linecap:round; stroke-linejoin:round; stroke-width:2; stroke-opacity:0.1; fill:none" points="800.321,4247.76 4611.02,4247.76 "/>
<polyline clip-path="url(#clip472)" style="stroke:#000000; stroke-linecap:round; stroke-linejoin:round; stroke-width:2; stroke-opacity:0.1; fill:none" points="800.321,2994.67 4611.02,2994.67 "/>
<polyline clip-path="url(#clip472)" style="stroke:#000000; stroke-linecap:round; stroke-linejoin:round; stroke-width:2; stroke-opacity:0.1; fill:none" points="800.321,1741.58 4611.02,1741.58 "/>
<polyline clip-path="url(#clip472)" style="stroke:#000000; stroke-linecap:round; stroke-linejoin:round; stroke-width:2; stroke-opacity:0.1; fill:none" points="800.321,488.492 4611.02,488.492 "/>
<polyline clip-path="url(#clip472)" style="stroke:#000000; stroke-linecap:round; stroke-linejoin:round; stroke-width:2; stroke-opacity:0.1; fill:none" points="800.321,4247.76 4611.02,4247.76 "/>
<polyline clip-path="url(#clip472)" style="stroke:#000000; stroke-linecap:round; stroke-linejoin:round; stroke-width:2; stroke-opacity:0.1; fill:none" points="800.321,2994.67 4611.02,2994.67 "/>
<polyline clip-path="url(#clip472)" style="stroke:#000000; stroke-linecap:round; stroke-linejoin:round; stroke-width:2; stroke-opacity:0.1; fill:none" points="800.321,1741.58 4611.02,1741.58 "/>
<polyline clip-path="url(#clip472)" style="stroke:#000000; stroke-linecap:round; stroke-linejoin:round; stroke-width:2; stroke-opacity:0.1; fill:none" points="800.321,488.492 4611.02,488.492 "/>
<polyline clip-path="url(#clip470)" style="stroke:#000000; stroke-linecap:round; stroke-linejoin:round; stroke-width:4; stroke-opacity:1; fill:none" points="800.321,4247.76 800.321,488.492 "/>
<polyline clip-path="url(#clip470)" style="stroke:#000000; stroke-linecap:round; stroke-linejoin:round; stroke-width:4; stroke-opacity:1; fill:none" points="4611.02,4247.76 4611.02,488.492 "/>
<polyline clip-path="url(#clip470)" style="stroke:#000000; stroke-linecap:round; stroke-linejoin:round; stroke-width:4; stroke-opacity:1; fill:none" points="800.321,4247.76 819.219,4247.76 "/>
<polyline clip-path="url(#clip470)" style="stroke:#000000; stroke-linecap:round; stroke-linejoin:round; stroke-width:4; stroke-opacity:1; fill:none" points="800.321,2994.67 819.219,2994.67 "/>
<polyline clip-path="url(#clip470)" style="stroke:#000000; stroke-linecap:round; stroke-linejoin:round; stroke-width:4; stroke-opacity:1; fill:none" points="800.321,1741.58 819.219,1741.58 "/>
<polyline clip-path="url(#clip470)" style="stroke:#000000; stroke-linecap:round; stroke-linejoin:round; stroke-width:4; stroke-opacity:1; fill:none" points="800.321,488.492 819.219,488.492 "/>
<polyline clip-path="url(#clip470)" style="stroke:#000000; stroke-linecap:round; stroke-linejoin:round; stroke-width:4; stroke-opacity:1; fill:none" points="4611.02,4247.76 4592.13,4247.76 "/>
<polyline clip-path="url(#clip470)" style="stroke:#000000; stroke-linecap:round; stroke-linejoin:round; stroke-width:4; stroke-opacity:1; fill:none" points="4611.02,2994.67 4592.13,2994.67 "/>
<polyline clip-path="url(#clip470)" style="stroke:#000000; stroke-linecap:round; stroke-linejoin:round; stroke-width:4; stroke-opacity:1; fill:none" points="4611.02,1741.58 4592.13,1741.58 "/>
<polyline clip-path="url(#clip470)" style="stroke:#000000; stroke-linecap:round; stroke-linejoin:round; stroke-width:4; stroke-opacity:1; fill:none" points="4611.02,488.492 4592.13,488.492 "/>
<g clip-path="url(#clip470)">
<text style="fill:#000000; fill-opacity:1; font-family:Courier,Courier New,Lucida Sans Typewriter,Lucida Typewriter,monospace; font-size:163px; text-anchor:middle;" transform="rotate(0, 525.389, 4295.26)" x="525.389" y="4295.26">0.00</text>
</g>
<g clip-path="url(#clip470)">
<text style="fill:#000000; fill-opacity:1; font-family:Courier,Courier New,Lucida Sans Typewriter,Lucida Typewriter,monospace; font-size:163px; text-anchor:middle;" transform="rotate(0, 525.389, 3042.17)" x="525.389" y="3042.17">0.05</text>
</g>
<g clip-path="url(#clip470)">
<text style="fill:#000000; fill-opacity:1; font-family:Courier,Courier New,Lucida Sans Typewriter,Lucida Typewriter,monospace; font-size:163px; text-anchor:middle;" transform="rotate(0, 525.389, 1789.08)" x="525.389" y="1789.08">0.10</text>
</g>
<g clip-path="url(#clip470)">
<text style="fill:#000000; fill-opacity:1; font-family:Courier,Courier New,Lucida Sans Typewriter,Lucida Typewriter,monospace; font-size:163px; text-anchor:middle;" transform="rotate(0, 525.389, 535.992)" x="525.389" y="535.992">0.15</text>
</g>
<g clip-path="url(#clip470)">
<text style="fill:#000000; fill-opacity:1; font-family:Courier,Courier New,Lucida Sans Typewriter,Lucida Typewriter,monospace; font-size:163px; text-anchor:start;" transform="rotate(0, 879.281, 146.818)" x="879.281" y="146.818">Density of the allocation solutions </text>
</g>
<g clip-path="url(#clip470)">
<text style="fill:#000000; fill-opacity:1; font-family:Courier,Courier New,Lucida Sans Typewriter,Lucida Typewriter,monospace; font-size:163px; text-anchor:start;" transform="rotate(0, 1944.68, 288.702)" x="1944.68" y="288.702">(Leave-one-out)</text>
</g>
<path clip-path="url(#clip472)" d="M2122.55 4247.75 L2134.37 4247.74 L2146.18 4247.72 L2158 4247.67 L2169.81 4247.54 L2181.63 4247.3 L2193.44 4246.85 L2205.25 4246.08 L2217.07 4244.84 L2228.88 4242.97 L2240.7 4240.35 L2252.51 4236.84 L2264.33 4232.33 L2276.14 4226.68 L2287.95 4219.61 L2299.77 4210.7 L2311.58 4199.36 L2323.4 4184.87 L2335.21 4166.46 L2347.03 4143.53 L2358.84 4115.78 L2370.65 4083.43 L2382.47 4047.36 L2394.28 4009.15 L2406.1 3970.83 L2417.91 3934.32 L2429.72 3900.81 L2441.54 3870.12 L2453.35 3840.66 L2465.17 3809.95 L2476.98 3775.67 L2488.8 3736.83 L2500.61 3694.5 L2512.42 3651.69 L2524.24 3612.58 L2536.05 3581.3 L2547.87 3560.67 L2559.68 3551.55 L2571.5 3552.71 L2583.31 3561.41 L2595.12 3574.4 L2606.94 3588.93 L2618.75 3603.47 L2630.57 3617.76 L2642.38 3632.37 L2654.2 3647.89 L2666.01 3664.33 L2677.82 3680.96 L2689.64 3696.73 L2701.45 3710.86 L2713.27 3723.42 L2725.08 3735.38 L2736.9 3748.15 L2748.71 3762.9 L2760.52 3779.82 L2772.34 3797.79 L2784.15 3814.63 L2795.97 3827.66 L2807.78 3834.48 L2819.59 3833.66 L2831.41 3825.1 L2843.22 3810.07 L2855.04 3790.94 L2866.85 3770.72 L2878.67 3752.5 L2890.48 3738.81 L2902.29 3731.14 L2914.11 3729.67 L2925.92 3733.32 L2937.74 3740.15 L2949.55 3747.9 L2961.37 3754.47 L2973.18 3758.19 L2984.99 3757.84 L2996.81 3752.53 L3008.62 3741.58 L3020.44 3724.49 L3032.25 3701.09 L3044.07 3671.63 L3055.88 3637.01 L3067.69 3598.76 L3079.51 3559.03 L3091.32 3520.17 L3103.14 3484.37 L3114.95 3453.24 L3126.77 3427.61 L3138.58 3407.72 L3150.39 3393.5 L3162.21 3384.9 L3174.02 3381.85 L3185.84 3383.97 L3197.65 3390.08 L3209.47 3397.95 L3221.28 3404.35 L3233.09 3405.69 L3244.91 3398.86 L3256.72 3382.05 L3268.54 3355.35 L3280.35 3320.75 L3292.16 3281.69 L3303.98 3242.17 L3315.79 3205.81 L3327.61 3174.93 L3339.42 3150.12 L3351.24 3130.29 L3363.05 3113.18 L3374.86 3096.09 L3386.68 3076.57 L3398.49 3052.92 L3410.31 3024.34 L3422.12 2990.98 L3433.94 2953.68 L3445.75 2913.71 L3457.56 2872.32 L3469.38 2830.35 L3481.19 2788.02 L3493.01 2744.9 L3504.82 2700.22 L3516.64 2653.21 L3528.45 2603.39 L3540.26 2550.69 L3552.08 2495.52 L3563.89 2438.92 L3575.71 2382.71 L3587.52 2329.52 L3599.34 2282.43 L3611.15 2244.12 L3622.96 2216.07 L3634.78 2198.25 L3646.59 2189.62 L3658.41 2189.21 L3670.22 2197.19 L3682.04 2215.25 L3693.85 2246.02 L3705.66 2291.8 L3717.48 2353.36 L3729.29 2429.35 L3741.11 2516.54 L3752.92 2610.72 L3764.73 2707.74 L3776.55 2804.24 L3788.36 2898 L3800.18 2987.84 L3811.99 3073.43 L3823.81 3155.07 L3835.62 3233.54 L3847.43 3309.8 L3859.25 3384.68 L3871.06 3458.39 L3882.88 3530.19 L3894.69 3598.2 L3906.51 3659.69 L3918.32 3711.76 L3930.13 3752.07 L3941.95 3779.59 L3953.76 3794.91 L3965.58 3800.1 L3977.39 3798.19 L3989.21 3792.59 L4001.02 3786.41 L4012.83 3782.23 L4024.65 3781.93 L4036.46 3786.72 L4048.28 3797.24 L4060.09 3813.62 L4071.91 3835.56 L4083.72 3862.34 L4095.53 3892.8 L4107.35 3925.36 L4119.16 3957.99 L4130.98 3988.38 L4142.79 4014.35 L4154.61 4034.38 L4166.42 4048.17 L4178.23 4056.89 L4190.05 4062.93 L4201.86 4069.26 L4213.68 4078.44 L4225.49 4091.94 L4237.3 4109.7 L4249.12 4130.4 L4260.93 4152 L4272.75 4172.46 L4284.56 4190.34 L4296.38 4204.99 L4308.19 4216.44 L4320 4225.16 L4331.82 4231.74 L4343.63 4236.67 L4355.45 4240.34 L4367.26 4243.01 L4379.08 4244.87 L4390.89 4246.1 L4402.7 4246.86 L4414.52 4247.31 L4426.33 4247.55 L4438.15 4247.67 L4449.96 4247.72 L4461.78 4247.75 L4473.59 4247.75 L4473.59 4247.76 L4461.78 4247.76 L4449.96 4247.76 L4438.15 4247.76 L4426.33 4247.76 L4414.52 4247.76 L4402.7 4247.76 L4390.89 4247.76 L4379.08 4247.76 L4367.26 4247.76 L4355.45 4247.76 L4343.63 4247.76 L4331.82 4247.76 L4320 4247.76 L4308.19 4247.76 L4296.38 4247.76 L4284.56 4247.76 L4272.75 4247.76 L4260.93 4247.76 L4249.12 4247.76 L4237.3 4247.76 L4225.49 4247.76 L4213.68 4247.76 L4201.86 4247.76 L4190.05 4247.76 L4178.23 4247.76 L4166.42 4247.76 L4154.61 4247.76 L4142.79 4247.76 L4130.98 4247.76 L4119.16 4247.76 L4107.35 4247.76 L4095.53 4247.76 L4083.72 4247.76 L4071.91 4247.76 L4060.09 4247.76 L4048.28 4247.76 L4036.46 4247.76 L4024.65 4247.76 L4012.83 4247.76 L4001.02 4247.76 L3989.21 4247.76 L3977.39 4247.76 L3965.58 4247.76 L3953.76 4247.76 L3941.95 4247.76 L3930.13 4247.76 L3918.32 4247.76 L3906.51 4247.76 L3894.69 4247.76 L3882.88 4247.76 L3871.06 4247.76 L3859.25 4247.76 L3847.43 4247.76 L3835.62 4247.76 L3823.81 4247.76 L3811.99 4247.76 L3800.18 4247.76 L3788.36 4247.76 L3776.55 4247.76 L3764.73 4247.76 L3752.92 4247.76 L3741.11 4247.76 L3729.29 4247.76 L3717.48 4247.76 L3705.66 4247.76 L3693.85 4247.76 L3682.04 4247.76 L3670.22 4247.76 L3658.41 4247.76 L3646.59 4247.76 L3634.78 4247.76 L3622.96 4247.76 L3611.15 4247.76 L3599.34 4247.76 L3587.52 4247.76 L3575.71 4247.76 L3563.89 4247.76 L3552.08 4247.76 L3540.26 4247.76 L3528.45 4247.76 L3516.64 4247.76 L3504.82 4247.76 L3493.01 4247.76 L3481.19 4247.76 L3469.38 4247.76 L3457.56 4247.76 L3445.75 4247.76 L3433.94 4247.76 L3422.12 4247.76 L3410.31 4247.76 L3398.49 4247.76 L3386.68 4247.76 L3374.86 4247.76 L3363.05 4247.76 L3351.24 4247.76 L3339.42 4247.76 L3327.61 4247.76 L3315.79 4247.76 L3303.98 4247.76 L3292.16 4247.76 L3280.35 4247.76 L3268.54 4247.76 L3256.72 4247.76 L3244.91 4247.76 L3233.09 4247.76 L3221.28 4247.76 L3209.47 4247.76 L3197.65 4247.76 L3185.84 4247.76 L3174.02 4247.76 L3162.21 4247.76 L3150.39 4247.76 L3138.58 4247.76 L3126.77 4247.76 L3114.95 4247.76 L3103.14 4247.76 L3091.32 4247.76 L3079.51 4247.76 L3067.69 4247.76 L3055.88 4247.76 L3044.07 4247.76 L3032.25 4247.76 L3020.44 4247.76 L3008.62 4247.76 L2996.81 4247.76 L2984.99 4247.76 L2973.18 4247.76 L2961.37 4247.76 L2949.55 4247.76 L2937.74 4247.76 L2925.92 4247.76 L2914.11 4247.76 L2902.29 4247.76 L2890.48 4247.76 L2878.67 4247.76 L2866.85 4247.76 L2855.04 4247.76 L2843.22 4247.76 L2831.41 4247.76 L2819.59 4247.76 L2807.78 4247.76 L2795.97 4247.76 L2784.15 4247.76 L2772.34 4247.76 L2760.52 4247.76 L2748.71 4247.76 L2736.9 4247.76 L2725.08 4247.76 L2713.27 4247.76 L2701.45 4247.76 L2689.64 4247.76 L2677.82 4247.76 L2666.01 4247.76 L2654.2 4247.76 L2642.38 4247.76 L2630.57 4247.76 L2618.75 4247.76 L2606.94 4247.76 L2595.12 4247.76 L2583.31 4247.76 L2571.5 4247.76 L2559.68 4247.76 L2547.87 4247.76 L2536.05 4247.76 L2524.24 4247.76 L2512.42 4247.76 L2500.61 4247.76 L2488.8 4247.76 L2476.98 4247.76 L2465.17 4247.76 L2453.35 4247.76 L2441.54 4247.76 L2429.72 4247.76 L2417.91 4247.76 L2406.1 4247.76 L2394.28 4247.76 L2382.47 4247.76 L2370.65 4247.76 L2358.84 4247.76 L2347.03 4247.76 L2335.21 4247.76 L2323.4 4247.76 L2311.58 4247.76 L2299.77 4247.76 L2287.95 4247.76 L2276.14 4247.76 L2264.33 4247.76 L2252.51 4247.76 L2240.7 4247.76 L2228.88 4247.76 L2217.07 4247.76 L2205.25 4247.76 L2193.44 4247.76 L2181.63 4247.76 L2169.81 4247.76 L2158 4247.76 L2146.18 4247.76 L2134.37 4247.76 L2122.55 4247.76  Z" fill="#9466bd" fill-rule="evenodd" fill-opacity="0.4"/>
<polyline clip-path="url(#clip472)" style="stroke:#9466bd; stroke-linecap:round; stroke-linejoin:round; stroke-width:24; stroke-opacity:1; fill:none" points="2122.55,4247.75 2134.37,4247.74 2146.18,4247.72 2158,4247.67 2169.81,4247.54 2181.63,4247.3 2193.44,4246.85 2205.25,4246.08 2217.07,4244.84 2228.88,4242.97 2240.7,4240.35 2252.51,4236.84 2264.33,4232.33 2276.14,4226.68 2287.95,4219.61 2299.77,4210.7 2311.58,4199.36 2323.4,4184.87 2335.21,4166.46 2347.03,4143.53 2358.84,4115.78 2370.65,4083.43 2382.47,4047.36 2394.28,4009.15 2406.1,3970.83 2417.91,3934.32 2429.72,3900.81 2441.54,3870.12 2453.35,3840.66 2465.17,3809.95 2476.98,3775.67 2488.8,3736.83 2500.61,3694.5 2512.42,3651.69 2524.24,3612.58 2536.05,3581.3 2547.87,3560.67 2559.68,3551.55 2571.5,3552.71 2583.31,3561.41 2595.12,3574.4 2606.94,3588.93 2618.75,3603.47 2630.57,3617.76 2642.38,3632.37 2654.2,3647.89 2666.01,3664.33 2677.82,3680.96 2689.64,3696.73 2701.45,3710.86 2713.27,3723.42 2725.08,3735.38 2736.9,3748.15 2748.71,3762.9 2760.52,3779.82 2772.34,3797.79 2784.15,3814.63 2795.97,3827.66 2807.78,3834.48 2819.59,3833.66 2831.41,3825.1 2843.22,3810.07 2855.04,3790.94 2866.85,3770.72 2878.67,3752.5 2890.48,3738.81 2902.29,3731.14 2914.11,3729.67 2925.92,3733.32 2937.74,3740.15 2949.55,3747.9 2961.37,3754.47 2973.18,3758.19 2984.99,3757.84 2996.81,3752.53 3008.62,3741.58 3020.44,3724.49 3032.25,3701.09 3044.07,3671.63 3055.88,3637.01 3067.69,3598.76 3079.51,3559.03 3091.32,3520.17 3103.14,3484.37 3114.95,3453.24 3126.77,3427.61 3138.58,3407.72 3150.39,3393.5 3162.21,3384.9 3174.02,3381.85 3185.84,3383.97 3197.65,3390.08 3209.47,3397.95 3221.28,3404.35 3233.09,3405.69 3244.91,3398.86 3256.72,3382.05 3268.54,3355.35 3280.35,3320.75 3292.16,3281.69 3303.98,3242.17 3315.79,3205.81 3327.61,3174.93 3339.42,3150.12 3351.24,3130.29 3363.05,3113.18 3374.86,3096.09 3386.68,3076.57 3398.49,3052.92 3410.31,3024.34 3422.12,2990.98 3433.94,2953.68 3445.75,2913.71 3457.56,2872.32 3469.38,2830.35 3481.19,2788.02 3493.01,2744.9 3504.82,2700.22 3516.64,2653.21 3528.45,2603.39 3540.26,2550.69 3552.08,2495.52 3563.89,2438.92 3575.71,2382.71 3587.52,2329.52 3599.34,2282.43 3611.15,2244.12 3622.96,2216.07 3634.78,2198.25 3646.59,2189.62 3658.41,2189.21 3670.22,2197.19 3682.04,2215.25 3693.85,2246.02 3705.66,2291.8 3717.48,2353.36 3729.29,2429.35 3741.11,2516.54 3752.92,2610.72 3764.73,2707.74 3776.55,2804.24 3788.36,2898 3800.18,2987.84 3811.99,3073.43 3823.81,3155.07 3835.62,3233.54 3847.43,3309.8 3859.25,3384.68 3871.06,3458.39 3882.88,3530.19 3894.69,3598.2 3906.51,3659.69 3918.32,3711.76 3930.13,3752.07 3941.95,3779.59 3953.76,3794.91 3965.58,3800.1 3977.39,3798.19 3989.21,3792.59 4001.02,3786.41 4012.83,3782.23 4024.65,3781.93 4036.46,3786.72 4048.28,3797.24 4060.09,3813.62 4071.91,3835.56 4083.72,3862.34 4095.53,3892.8 4107.35,3925.36 4119.16,3957.99 4130.98,3988.38 4142.79,4014.35 4154.61,4034.38 4166.42,4048.17 4178.23,4056.89 4190.05,4062.93 4201.86,4069.26 4213.68,4078.44 4225.49,4091.94 4237.3,4109.7 4249.12,4130.4 4260.93,4152 4272.75,4172.46 4284.56,4190.34 4296.38,4204.99 4308.19,4216.44 4320,4225.16 4331.82,4231.74 4343.63,4236.67 4355.45,4240.34 4367.26,4243.01 4379.08,4244.87 4390.89,4246.1 4402.7,4246.86 4414.52,4247.31 4426.33,4247.55 4438.15,4247.67 4449.96,4247.72 4461.78,4247.75 4473.59,4247.75 "/>
<path clip-path="url(#clip470)" d="M3494.13 897.568 L4484 897.568 L4484 613.8 L3494.13 613.8  Z" fill="#ffffff" fill-rule="evenodd" fill-opacity="1"/>
<polyline clip-path="url(#clip470)" style="stroke:#000000; stroke-linecap:round; stroke-linejoin:round; stroke-width:4; stroke-opacity:1; fill:none" points="3494.13,897.568 4484,897.568 4484,613.8 3494.13,613.8 3494.13,897.568 "/>
<path clip-path="url(#clip470)" d="M3536.47 812.437 L3790.52 812.437 L3790.52 698.931 L3536.47 698.931 L3536.47 812.437  Z" fill="#9466bd" fill-rule="evenodd" fill-opacity="0.4"/>
<polyline clip-path="url(#clip470)" style="stroke:#9466bd; stroke-linecap:round; stroke-linejoin:round; stroke-width:55; stroke-opacity:1; fill:none" points="3536.47,698.931 3790.52,698.931 "/>
<g clip-path="url(#clip470)">
<text style="fill:#000000; fill-opacity:1; font-family:Courier,Courier New,Lucida Sans Typewriter,Lucida Typewriter,monospace; font-size:163px; text-anchor:start;" transform="rotate(0, 3832.86, 803.184)" x="3832.86" y="803.184">EVA 14</text>
</g>
</svg>
