<?xml version="1.0" encoding="utf-8"?>
<svg xmlns="http://www.w3.org/2000/svg" xmlns:xlink="http://www.w3.org/1999/xlink" width="1200" height="1200" viewBox="0 0 4800 4800">
<defs>
  <clipPath id="clip270">
    <rect x="0" y="0" width="4800" height="4800"/>
  </clipPath>
</defs>
<path clip-path="url(#clip270)" d="M0 4800 L4800 4800 L4800 0 L0 0  Z" fill="#ffffff" fill-rule="evenodd" fill-opacity="1"/>
<defs>
  <clipPath id="clip271">
    <rect x="960" y="480" width="3361" height="3361"/>
  </clipPath>
</defs>
<path clip-path="url(#clip270)" d="M800.321 4247.76 L4611.02 4247.76 L4611.02 488.492 L800.321 488.492  Z" fill="#ffffff" fill-rule="evenodd" fill-opacity="1"/>
<defs>
  <clipPath id="clip272">
    <rect x="800" y="488" width="3812" height="3760"/>
  </clipPath>
</defs>
<polyline clip-path="url(#clip272)" style="stroke:#000000; stroke-linecap:round; stroke-linejoin:round; stroke-width:2; stroke-opacity:0.1; fill:none" points="1006.59,4247.76 1006.59,488.492 "/>
<polyline clip-path="url(#clip272)" style="stroke:#000000; stroke-linecap:round; stroke-linejoin:round; stroke-width:2; stroke-opacity:0.1; fill:none" points="1631.29,4247.76 1631.29,488.492 "/>
<polyline clip-path="url(#clip272)" style="stroke:#000000; stroke-linecap:round; stroke-linejoin:round; stroke-width:2; stroke-opacity:0.1; fill:none" points="2255.99,4247.76 2255.99,488.492 "/>
<polyline clip-path="url(#clip272)" style="stroke:#000000; stroke-linecap:round; stroke-linejoin:round; stroke-width:2; stroke-opacity:0.1; fill:none" points="2880.69,4247.76 2880.69,488.492 "/>
<polyline clip-path="url(#clip272)" style="stroke:#000000; stroke-linecap:round; stroke-linejoin:round; stroke-width:2; stroke-opacity:0.1; fill:none" points="3505.39,4247.76 3505.39,488.492 "/>
<polyline clip-path="url(#clip272)" style="stroke:#000000; stroke-linecap:round; stroke-linejoin:round; stroke-width:2; stroke-opacity:0.1; fill:none" points="4130.09,4247.76 4130.09,488.492 "/>
<polyline clip-path="url(#clip272)" style="stroke:#000000; stroke-linecap:round; stroke-linejoin:round; stroke-width:2; stroke-opacity:0.1; fill:none" points="1006.59,4247.76 1006.59,488.492 "/>
<polyline clip-path="url(#clip272)" style="stroke:#000000; stroke-linecap:round; stroke-linejoin:round; stroke-width:2; stroke-opacity:0.1; fill:none" points="1631.29,4247.76 1631.29,488.492 "/>
<polyline clip-path="url(#clip272)" style="stroke:#000000; stroke-linecap:round; stroke-linejoin:round; stroke-width:2; stroke-opacity:0.1; fill:none" points="2255.99,4247.76 2255.99,488.492 "/>
<polyline clip-path="url(#clip272)" style="stroke:#000000; stroke-linecap:round; stroke-linejoin:round; stroke-width:2; stroke-opacity:0.1; fill:none" points="2880.69,4247.76 2880.69,488.492 "/>
<polyline clip-path="url(#clip272)" style="stroke:#000000; stroke-linecap:round; stroke-linejoin:round; stroke-width:2; stroke-opacity:0.1; fill:none" points="3505.39,4247.76 3505.39,488.492 "/>
<polyline clip-path="url(#clip272)" style="stroke:#000000; stroke-linecap:round; stroke-linejoin:round; stroke-width:2; stroke-opacity:0.1; fill:none" points="4130.09,4247.76 4130.09,488.492 "/>
<polyline clip-path="url(#clip270)" style="stroke:#000000; stroke-linecap:round; stroke-linejoin:round; stroke-width:4; stroke-opacity:1; fill:none" points="800.321,4247.76 4611.02,4247.76 "/>
<polyline clip-path="url(#clip270)" style="stroke:#000000; stroke-linecap:round; stroke-linejoin:round; stroke-width:4; stroke-opacity:1; fill:none" points="800.321,488.492 4611.02,488.492 "/>
<polyline clip-path="url(#clip270)" style="stroke:#000000; stroke-linecap:round; stroke-linejoin:round; stroke-width:4; stroke-opacity:1; fill:none" points="1006.59,4247.76 1006.59,4228.86 "/>
<polyline clip-path="url(#clip270)" style="stroke:#000000; stroke-linecap:round; stroke-linejoin:round; stroke-width:4; stroke-opacity:1; fill:none" points="1631.29,4247.76 1631.29,4228.86 "/>
<polyline clip-path="url(#clip270)" style="stroke:#000000; stroke-linecap:round; stroke-linejoin:round; stroke-width:4; stroke-opacity:1; fill:none" points="2255.99,4247.76 2255.99,4228.86 "/>
<polyline clip-path="url(#clip270)" style="stroke:#000000; stroke-linecap:round; stroke-linejoin:round; stroke-width:4; stroke-opacity:1; fill:none" points="2880.69,4247.76 2880.69,4228.86 "/>
<polyline clip-path="url(#clip270)" style="stroke:#000000; stroke-linecap:round; stroke-linejoin:round; stroke-width:4; stroke-opacity:1; fill:none" points="3505.39,4247.76 3505.39,4228.86 "/>
<polyline clip-path="url(#clip270)" style="stroke:#000000; stroke-linecap:round; stroke-linejoin:round; stroke-width:4; stroke-opacity:1; fill:none" points="4130.09,4247.76 4130.09,4228.86 "/>
<polyline clip-path="url(#clip270)" style="stroke:#000000; stroke-linecap:round; stroke-linejoin:round; stroke-width:4; stroke-opacity:1; fill:none" points="1006.59,488.492 1006.59,507.389 "/>
<polyline clip-path="url(#clip270)" style="stroke:#000000; stroke-linecap:round; stroke-linejoin:round; stroke-width:4; stroke-opacity:1; fill:none" points="1631.29,488.492 1631.29,507.389 "/>
<polyline clip-path="url(#clip270)" style="stroke:#000000; stroke-linecap:round; stroke-linejoin:round; stroke-width:4; stroke-opacity:1; fill:none" points="2255.99,488.492 2255.99,507.389 "/>
<polyline clip-path="url(#clip270)" style="stroke:#000000; stroke-linecap:round; stroke-linejoin:round; stroke-width:4; stroke-opacity:1; fill:none" points="2880.69,488.492 2880.69,507.389 "/>
<polyline clip-path="url(#clip270)" style="stroke:#000000; stroke-linecap:round; stroke-linejoin:round; stroke-width:4; stroke-opacity:1; fill:none" points="3505.39,488.492 3505.39,507.389 "/>
<polyline clip-path="url(#clip270)" style="stroke:#000000; stroke-linecap:round; stroke-linejoin:round; stroke-width:4; stroke-opacity:1; fill:none" points="4130.09,488.492 4130.09,507.389 "/>
<g clip-path="url(#clip270)">
<text style="fill:#000000; fill-opacity:1; font-family:Courier,Courier New,Lucida Sans Typewriter,Lucida Typewriter,monospace; font-size:163px; text-anchor:middle;" transform="rotate(0, 1006.59, 4404.6)" x="1006.59" y="4404.6">−20</text>
</g>
<g clip-path="url(#clip270)">
<text style="fill:#000000; fill-opacity:1; font-family:Courier,Courier New,Lucida Sans Typewriter,Lucida Typewriter,monospace; font-size:163px; text-anchor:middle;" transform="rotate(0, 1631.29, 4404.6)" x="1631.29" y="4404.6">−10</text>
</g>
<g clip-path="url(#clip270)">
<text style="fill:#000000; fill-opacity:1; font-family:Courier,Courier New,Lucida Sans Typewriter,Lucida Typewriter,monospace; font-size:163px; text-anchor:middle;" transform="rotate(0, 2255.99, 4404.6)" x="2255.99" y="4404.6">0</text>
</g>
<g clip-path="url(#clip270)">
<text style="fill:#000000; fill-opacity:1; font-family:Courier,Courier New,Lucida Sans Typewriter,Lucida Typewriter,monospace; font-size:163px; text-anchor:middle;" transform="rotate(0, 2880.69, 4404.6)" x="2880.69" y="4404.6">10</text>
</g>
<g clip-path="url(#clip270)">
<text style="fill:#000000; fill-opacity:1; font-family:Courier,Courier New,Lucida Sans Typewriter,Lucida Typewriter,monospace; font-size:163px; text-anchor:middle;" transform="rotate(0, 3505.39, 4404.6)" x="3505.39" y="4404.6">20</text>
</g>
<g clip-path="url(#clip270)">
<text style="fill:#000000; fill-opacity:1; font-family:Courier,Courier New,Lucida Sans Typewriter,Lucida Typewriter,monospace; font-size:163px; text-anchor:middle;" transform="rotate(0, 4130.09, 4404.6)" x="4130.09" y="4404.6">30</text>
</g>
<g clip-path="url(#clip270)">
<text style="fill:#000000; fill-opacity:1; font-family:Courier,Courier New,Lucida Sans Typewriter,Lucida Typewriter,monospace; font-size:163px; text-anchor:middle;" transform="rotate(0, 2705.67, 4584.53)" x="2705.67" y="4584.53">Allocated avoided cost (EUR/h)</text>
</g>
<polyline clip-path="url(#clip272)" style="stroke:#000000; stroke-linecap:round; stroke-linejoin:round; stroke-width:2; stroke-opacity:0.1; fill:none" points="800.321,4247.76 4611.02,4247.76 "/>
<polyline clip-path="url(#clip272)" style="stroke:#000000; stroke-linecap:round; stroke-linejoin:round; stroke-width:2; stroke-opacity:0.1; fill:none" points="800.321,2994.67 4611.02,2994.67 "/>
<polyline clip-path="url(#clip272)" style="stroke:#000000; stroke-linecap:round; stroke-linejoin:round; stroke-width:2; stroke-opacity:0.1; fill:none" points="800.321,1741.58 4611.02,1741.58 "/>
<polyline clip-path="url(#clip272)" style="stroke:#000000; stroke-linecap:round; stroke-linejoin:round; stroke-width:2; stroke-opacity:0.1; fill:none" points="800.321,488.492 4611.02,488.492 "/>
<polyline clip-path="url(#clip272)" style="stroke:#000000; stroke-linecap:round; stroke-linejoin:round; stroke-width:2; stroke-opacity:0.1; fill:none" points="800.321,4247.76 4611.02,4247.76 "/>
<polyline clip-path="url(#clip272)" style="stroke:#000000; stroke-linecap:round; stroke-linejoin:round; stroke-width:2; stroke-opacity:0.1; fill:none" points="800.321,2994.67 4611.02,2994.67 "/>
<polyline clip-path="url(#clip272)" style="stroke:#000000; stroke-linecap:round; stroke-linejoin:round; stroke-width:2; stroke-opacity:0.1; fill:none" points="800.321,1741.58 4611.02,1741.58 "/>
<polyline clip-path="url(#clip272)" style="stroke:#000000; stroke-linecap:round; stroke-linejoin:round; stroke-width:2; stroke-opacity:0.1; fill:none" points="800.321,488.492 4611.02,488.492 "/>
<polyline clip-path="url(#clip270)" style="stroke:#000000; stroke-linecap:round; stroke-linejoin:round; stroke-width:4; stroke-opacity:1; fill:none" points="800.321,4247.76 800.321,488.492 "/>
<polyline clip-path="url(#clip270)" style="stroke:#000000; stroke-linecap:round; stroke-linejoin:round; stroke-width:4; stroke-opacity:1; fill:none" points="4611.02,4247.76 4611.02,488.492 "/>
<polyline clip-path="url(#clip270)" style="stroke:#000000; stroke-linecap:round; stroke-linejoin:round; stroke-width:4; stroke-opacity:1; fill:none" points="800.321,4247.76 819.219,4247.76 "/>
<polyline clip-path="url(#clip270)" style="stroke:#000000; stroke-linecap:round; stroke-linejoin:round; stroke-width:4; stroke-opacity:1; fill:none" points="800.321,2994.67 819.219,2994.67 "/>
<polyline clip-path="url(#clip270)" style="stroke:#000000; stroke-linecap:round; stroke-linejoin:round; stroke-width:4; stroke-opacity:1; fill:none" points="800.321,1741.58 819.219,1741.58 "/>
<polyline clip-path="url(#clip270)" style="stroke:#000000; stroke-linecap:round; stroke-linejoin:round; stroke-width:4; stroke-opacity:1; fill:none" points="800.321,488.492 819.219,488.492 "/>
<polyline clip-path="url(#clip270)" style="stroke:#000000; stroke-linecap:round; stroke-linejoin:round; stroke-width:4; stroke-opacity:1; fill:none" points="4611.02,4247.76 4592.13,4247.76 "/>
<polyline clip-path="url(#clip270)" style="stroke:#000000; stroke-linecap:round; stroke-linejoin:round; stroke-width:4; stroke-opacity:1; fill:none" points="4611.02,2994.67 4592.13,2994.67 "/>
<polyline clip-path="url(#clip270)" style="stroke:#000000; stroke-linecap:round; stroke-linejoin:round; stroke-width:4; stroke-opacity:1; fill:none" points="4611.02,1741.58 4592.13,1741.58 "/>
<polyline clip-path="url(#clip270)" style="stroke:#000000; stroke-linecap:round; stroke-linejoin:round; stroke-width:4; stroke-opacity:1; fill:none" points="4611.02,488.492 4592.13,488.492 "/>
<g clip-path="url(#clip270)">
<text style="fill:#000000; fill-opacity:1; font-family:Courier,Courier New,Lucida Sans Typewriter,Lucida Typewriter,monospace; font-size:163px; text-anchor:middle;" transform="rotate(0, 525.389, 4295.26)" x="525.389" y="4295.26">0.00</text>
</g>
<g clip-path="url(#clip270)">
<text style="fill:#000000; fill-opacity:1; font-family:Courier,Courier New,Lucida Sans Typewriter,Lucida Typewriter,monospace; font-size:163px; text-anchor:middle;" transform="rotate(0, 525.389, 3042.17)" x="525.389" y="3042.17">0.05</text>
</g>
<g clip-path="url(#clip270)">
<text style="fill:#000000; fill-opacity:1; font-family:Courier,Courier New,Lucida Sans Typewriter,Lucida Typewriter,monospace; font-size:163px; text-anchor:middle;" transform="rotate(0, 525.389, 1789.08)" x="525.389" y="1789.08">0.10</text>
</g>
<g clip-path="url(#clip270)">
<text style="fill:#000000; fill-opacity:1; font-family:Courier,Courier New,Lucida Sans Typewriter,Lucida Typewriter,monospace; font-size:163px; text-anchor:middle;" transform="rotate(0, 525.389, 535.992)" x="525.389" y="535.992">0.15</text>
</g>
<g clip-path="url(#clip270)">
<text style="fill:#000000; fill-opacity:1; font-family:Courier,Courier New,Lucida Sans Typewriter,Lucida Typewriter,monospace; font-size:163px; text-anchor:start;" transform="rotate(0, 879.281, 146.818)" x="879.281" y="146.818">Density of the allocation solutions </text>
</g>
<g clip-path="url(#clip270)">
<text style="fill:#000000; fill-opacity:1; font-family:Courier,Courier New,Lucida Sans Typewriter,Lucida Typewriter,monospace; font-size:163px; text-anchor:start;" transform="rotate(0, 2147.61, 288.702)" x="2147.61" y="288.702">(Nucleolus)</text>
</g>
<path clip-path="url(#clip272)" d="M2122.55 4247.75 L2132.24 4247.75 L2141.92 4247.73 L2151.6 4247.7 L2161.29 4247.65 L2170.97 4247.54 L2180.65 4247.34 L2190.34 4247.01 L2200.02 4246.49 L2209.71 4245.7 L2219.39 4244.55 L2229.07 4242.96 L2238.76 4240.85 L2248.44 4238.16 L2258.12 4234.82 L2267.81 4230.77 L2277.49 4225.92 L2287.17 4220.12 L2296.86 4213.12 L2306.54 4204.62 L2316.22 4194.22 L2325.91 4181.51 L2335.59 4166.06 L2345.27 4147.53 L2354.96 4125.73 L2364.64 4100.71 L2374.32 4072.77 L2384.01 4042.57 L2393.69 4011.08 L2403.37 3979.43 L2413.06 3948.76 L2422.74 3919.92 L2432.42 3893.23 L2442.11 3868.33 L2451.79 3844.22 L2461.47 3819.49 L2471.16 3792.72 L2480.84 3762.97 L2490.52 3730.13 L2500.21 3695.09 L2509.89 3659.66 L2519.57 3626.24 L2529.26 3597.35 L2538.94 3575.13 L2548.63 3560.93 L2558.31 3555.09 L2567.99 3556.86 L2577.68 3564.68 L2587.36 3576.45 L2597.04 3590.06 L2606.73 3603.77 L2616.41 3616.51 L2626.09 3627.99 L2635.78 3638.52 L2645.46 3648.7 L2655.14 3659.08 L2664.83 3669.85 L2674.51 3680.83 L2684.19 3691.47 L2693.88 3701.18 L2703.56 3709.52 L2713.24 3716.42 L2722.93 3722.13 L2732.61 3727.15 L2742.29 3731.95 L2751.98 3736.72 L2761.66 3741.27 L2771.34 3745.02 L2781.03 3747.1 L2790.71 3746.62 L2800.39 3742.88 L2810.08 3735.55 L2819.76 3724.72 L2829.44 3710.95 L2839.13 3695.16 L2848.81 3678.53 L2858.49 3662.44 L2868.18 3648.25 L2877.86 3637.16 L2887.55 3630 L2897.23 3626.98 L2906.91 3627.64 L2916.6 3630.82 L2926.28 3634.89 L2935.96 3638.12 L2945.65 3639.03 L2955.33 3636.72 L2965.01 3630.95 L2974.7 3622.05 L2984.38 3610.68 L2994.06 3597.47 L3003.75 3582.81 L3013.43 3566.68 L3023.11 3548.75 L3032.8 3528.53 L3042.48 3505.55 L3052.16 3479.63 L3061.85 3450.92 L3071.53 3419.95 L3081.21 3387.56 L3090.9 3354.77 L3100.58 3322.61 L3110.26 3291.99 L3119.95 3263.62 L3129.63 3237.95 L3139.31 3215.25 L3149 3195.61 L3158.68 3179.02 L3168.36 3165.31 L3178.05 3154.14 L3187.73 3144.91 L3197.41 3136.67 L3207.1 3128.15 L3216.78 3117.84 L3226.47 3104.16 L3236.15 3085.77 L3245.83 3061.8 L3255.52 3032.15 L3265.2 2997.63 L3274.88 2959.89 L3284.57 2921.29 L3294.25 2884.48 L3303.93 2851.93 L3313.62 2825.43 L3323.3 2805.73 L3332.98 2792.37 L3342.67 2783.71 L3352.35 2777.31 L3362.03 2770.35 L3371.72 2760.18 L3381.4 2744.77 L3391.08 2722.97 L3400.77 2694.67 L3410.45 2660.6 L3420.13 2622.08 L3429.82 2580.66 L3439.5 2537.69 L3449.18 2494.05 L3458.87 2449.91 L3468.55 2404.78 L3478.23 2357.66 L3487.92 2307.42 L3497.6 2253.18 L3507.28 2194.8 L3516.97 2133.16 L3526.65 2070.28 L3536.33 2009.24 L3546.02 1953.81 L3555.7 1908.1 L3565.39 1876.05 L3575.07 1861.02 L3584.75 1865.43 L3594.44 1890.47 L3604.12 1936.01 L3613.8 2000.51 L3623.49 2081.21 L3633.17 2174.38 L3642.85 2275.68 L3652.54 2380.67 L3662.22 2485.16 L3671.9 2585.61 L3681.59 2679.31 L3691.27 2764.44 L3700.95 2840.1 L3710.64 2906.23 L3720.32 2963.46 L3730 3013.08 L3739.69 3056.83 L3749.37 3096.76 L3759.05 3135.05 L3768.74 3173.82 L3778.42 3215.02 L3788.1 3260.36 L3797.79 3311.19 L3807.47 3368.52 L3817.15 3432.87 L3826.84 3504.16 L3836.52 3581.61 L3846.2 3663.6 L3855.89 3747.76 L3865.57 3831.18 L3875.25 3910.76 L3884.94 3983.64 L3894.62 4047.61 L3904.31 4101.34 L3913.99 4144.51 L3923.67 4177.64 L3933.36 4201.95 L3943.04 4218.99 L3952.72 4230.4 L3962.41 4237.7 L3972.09 4242.17 L3981.77 4244.78 L3991.46 4246.23 L4001.14 4247.01 L4010.82 4247.41 L4020.51 4247.6 L4030.19 4247.69 L4039.87 4247.73 L4049.56 4247.75 L4049.56 4247.76 L4039.87 4247.76 L4030.19 4247.76 L4020.51 4247.76 L4010.82 4247.76 L4001.14 4247.76 L3991.46 4247.76 L3981.77 4247.76 L3972.09 4247.76 L3962.41 4247.76 L3952.72 4247.76 L3943.04 4247.76 L3933.36 4247.76 L3923.67 4247.76 L3913.99 4247.76 L3904.31 4247.76 L3894.62 4247.76 L3884.94 4247.76 L3875.25 4247.76 L3865.57 4247.76 L3855.89 4247.76 L3846.2 4247.76 L3836.52 4247.76 L3826.84 4247.76 L3817.15 4247.76 L3807.47 4247.76 L3797.79 4247.76 L3788.1 4247.76 L3778.42 4247.76 L3768.74 4247.76 L3759.05 4247.76 L3749.37 4247.76 L3739.69 4247.76 L3730 4247.76 L3720.32 4247.76 L3710.64 4247.76 L3700.95 4247.76 L3691.27 4247.76 L3681.59 4247.76 L3671.9 4247.76 L3662.22 4247.76 L3652.54 4247.76 L3642.85 4247.76 L3633.17 4247.76 L3623.49 4247.76 L3613.8 4247.76 L3604.12 4247.76 L3594.44 4247.76 L3584.75 4247.76 L3575.07 4247.76 L3565.39 4247.76 L3555.7 4247.76 L3546.02 4247.76 L3536.33 4247.76 L3526.65 4247.76 L3516.97 4247.76 L3507.28 4247.76 L3497.6 4247.76 L3487.92 4247.76 L3478.23 4247.76 L3468.55 4247.76 L3458.87 4247.76 L3449.18 4247.76 L3439.5 4247.76 L3429.82 4247.76 L3420.13 4247.76 L3410.45 4247.76 L3400.77 4247.76 L3391.08 4247.76 L3381.4 4247.76 L3371.72 4247.76 L3362.03 4247.76 L3352.35 4247.76 L3342.67 4247.76 L3332.98 4247.76 L3323.3 4247.76 L3313.62 4247.76 L3303.93 4247.76 L3294.25 4247.76 L3284.57 4247.76 L3274.88 4247.76 L3265.2 4247.76 L3255.52 4247.76 L3245.83 4247.76 L3236.15 4247.76 L3226.47 4247.76 L3216.78 4247.76 L3207.1 4247.76 L3197.41 4247.76 L3187.73 4247.76 L3178.05 4247.76 L3168.36 4247.76 L3158.68 4247.76 L3149 4247.76 L3139.31 4247.76 L3129.63 4247.76 L3119.95 4247.76 L3110.26 4247.76 L3100.58 4247.76 L3090.9 4247.76 L3081.21 4247.76 L3071.53 4247.76 L3061.85 4247.76 L3052.16 4247.76 L3042.48 4247.76 L3032.8 4247.76 L3023.11 4247.76 L3013.43 4247.76 L3003.75 4247.76 L2994.06 4247.76 L2984.38 4247.76 L2974.7 4247.76 L2965.01 4247.76 L2955.33 4247.76 L2945.65 4247.76 L2935.96 4247.76 L2926.28 4247.76 L2916.6 4247.76 L2906.91 4247.76 L2897.23 4247.76 L2887.55 4247.76 L2877.86 4247.76 L2868.18 4247.76 L2858.49 4247.76 L2848.81 4247.76 L2839.13 4247.76 L2829.44 4247.76 L2819.76 4247.76 L2810.08 4247.76 L2800.39 4247.76 L2790.71 4247.76 L2781.03 4247.76 L2771.34 4247.76 L2761.66 4247.76 L2751.98 4247.76 L2742.29 4247.76 L2732.61 4247.76 L2722.93 4247.76 L2713.24 4247.76 L2703.56 4247.76 L2693.88 4247.76 L2684.19 4247.76 L2674.51 4247.76 L2664.83 4247.76 L2655.14 4247.76 L2645.46 4247.76 L2635.78 4247.76 L2626.09 4247.76 L2616.41 4247.76 L2606.73 4247.76 L2597.04 4247.76 L2587.36 4247.76 L2577.68 4247.76 L2567.99 4247.76 L2558.31 4247.76 L2548.63 4247.76 L2538.94 4247.76 L2529.26 4247.76 L2519.57 4247.76 L2509.89 4247.76 L2500.21 4247.76 L2490.52 4247.76 L2480.84 4247.76 L2471.16 4247.76 L2461.47 4247.76 L2451.79 4247.76 L2442.11 4247.76 L2432.42 4247.76 L2422.74 4247.76 L2413.06 4247.76 L2403.37 4247.76 L2393.69 4247.76 L2384.01 4247.76 L2374.32 4247.76 L2364.64 4247.76 L2354.96 4247.76 L2345.27 4247.76 L2335.59 4247.76 L2325.91 4247.76 L2316.22 4247.76 L2306.54 4247.76 L2296.86 4247.76 L2287.17 4247.76 L2277.49 4247.76 L2267.81 4247.76 L2258.12 4247.76 L2248.44 4247.76 L2238.76 4247.76 L2229.07 4247.76 L2219.39 4247.76 L2209.71 4247.76 L2200.02 4247.76 L2190.34 4247.76 L2180.65 4247.76 L2170.97 4247.76 L2161.29 4247.76 L2151.6 4247.76 L2141.92 4247.76 L2132.24 4247.76 L2122.55 4247.76  Z" fill="#9466bd" fill-rule="evenodd" fill-opacity="0.4"/>
<polyline clip-path="url(#clip272)" style="stroke:#9466bd; stroke-linecap:round; stroke-linejoin:round; stroke-width:24; stroke-opacity:1; fill:none" points="2122.55,4247.75 2132.24,4247.75 2141.92,4247.73 2151.6,4247.7 2161.29,4247.65 2170.97,4247.54 2180.65,4247.34 2190.34,4247.01 2200.02,4246.49 2209.71,4245.7 2219.39,4244.55 2229.07,4242.96 2238.76,4240.85 2248.44,4238.16 2258.12,4234.82 2267.81,4230.77 2277.49,4225.92 2287.17,4220.12 2296.86,4213.12 2306.54,4204.62 2316.22,4194.22 2325.91,4181.51 2335.59,4166.06 2345.27,4147.53 2354.96,4125.73 2364.64,4100.71 2374.32,4072.77 2384.01,4042.57 2393.69,4011.08 2403.37,3979.43 2413.06,3948.76 2422.74,3919.92 2432.42,3893.23 2442.11,3868.33 2451.79,3844.22 2461.47,3819.49 2471.16,3792.72 2480.84,3762.97 2490.52,3730.13 2500.21,3695.09 2509.89,3659.66 2519.57,3626.24 2529.26,3597.35 2538.94,3575.13 2548.63,3560.93 2558.31,3555.09 2567.99,3556.86 2577.68,3564.68 2587.36,3576.45 2597.04,3590.06 2606.73,3603.77 2616.41,3616.51 2626.09,3627.99 2635.78,3638.52 2645.46,3648.7 2655.14,3659.08 2664.83,3669.85 2674.51,3680.83 2684.19,3691.47 2693.88,3701.18 2703.56,3709.52 2713.24,3716.42 2722.93,3722.13 2732.61,3727.15 2742.29,3731.95 2751.98,3736.72 2761.66,3741.27 2771.34,3745.02 2781.03,3747.1 2790.71,3746.62 2800.39,3742.88 2810.08,3735.55 2819.76,3724.72 2829.44,3710.95 2839.13,3695.16 2848.81,3678.53 2858.49,3662.44 2868.18,3648.25 2877.86,3637.16 2887.55,3630 2897.23,3626.98 2906.91,3627.64 2916.6,3630.82 2926.28,3634.89 2935.96,3638.12 2945.65,3639.03 2955.33,3636.72 2965.01,3630.95 2974.7,3622.05 2984.38,3610.68 2994.06,3597.47 3003.75,3582.81 3013.43,3566.68 3023.11,3548.75 3032.8,3528.53 3042.48,3505.55 3052.16,3479.63 3061.85,3450.92 3071.53,3419.95 3081.21,3387.56 3090.9,3354.77 3100.58,3322.61 3110.26,3291.99 3119.95,3263.62 3129.63,3237.95 3139.31,3215.25 3149,3195.61 3158.68,3179.02 3168.36,3165.31 3178.05,3154.14 3187.73,3144.91 3197.41,3136.67 3207.1,3128.15 3216.78,3117.84 3226.47,3104.16 3236.15,3085.77 3245.83,3061.8 3255.52,3032.15 3265.2,2997.63 3274.88,2959.89 3284.57,2921.29 3294.25,2884.48 3303.93,2851.93 3313.62,2825.43 3323.3,2805.73 3332.98,2792.37 3342.67,2783.71 3352.35,2777.31 3362.03,2770.35 3371.72,2760.18 3381.4,2744.77 3391.08,2722.97 3400.77,2694.67 3410.45,2660.6 3420.13,2622.08 3429.82,2580.66 3439.5,2537.69 3449.18,2494.05 3458.87,2449.91 3468.55,2404.78 3478.23,2357.66 3487.92,2307.42 3497.6,2253.18 3507.28,2194.8 3516.97,2133.16 3526.65,2070.28 3536.33,2009.24 3546.02,1953.81 3555.7,1908.1 3565.39,1876.05 3575.07,1861.02 3584.75,1865.43 3594.44,1890.47 3604.12,1936.01 3613.8,2000.51 3623.49,2081.21 3633.17,2174.38 3642.85,2275.68 3652.54,2380.67 3662.22,2485.16 3671.9,2585.61 3681.59,2679.31 3691.27,2764.44 3700.95,2840.1 3710.64,2906.23 3720.32,2963.46 3730,3013.08 3739.69,3056.83 3749.37,3096.76 3759.05,3135.05 3768.74,3173.82 3778.42,3215.02 3788.1,3260.36 3797.79,3311.19 3807.47,3368.52 3817.15,3432.87 3826.84,3504.16 3836.52,3581.61 3846.2,3663.6 3855.89,3747.76 3865.57,3831.18 3875.25,3910.76 3884.94,3983.64 3894.62,4047.61 3904.31,4101.34 3913.99,4144.51 3923.67,4177.64 3933.36,4201.95 3943.04,4218.99 3952.72,4230.4 3962.41,4237.7 3972.09,4242.17 3981.77,4244.78 3991.46,4246.23 4001.14,4247.01 4010.82,4247.41 4020.51,4247.6 4030.19,4247.69 4039.87,4247.73 4049.56,4247.75 "/>
<path clip-path="url(#clip270)" d="M3494.13 897.568 L4484 897.568 L4484 613.8 L3494.13 613.8  Z" fill="#ffffff" fill-rule="evenodd" fill-opacity="1"/>
<polyline clip-path="url(#clip270)" style="stroke:#000000; stroke-linecap:round; stroke-linejoin:round; stroke-width:4; stroke-opacity:1; fill:none" points="3494.13,897.568 4484,897.568 4484,613.8 3494.13,613.8 3494.13,897.568 "/>
<path clip-path="url(#clip270)" d="M3536.47 812.437 L3790.52 812.437 L3790.52 698.931 L3536.47 698.931 L3536.47 812.437  Z" fill="#9466bd" fill-rule="evenodd" fill-opacity="0.4"/>
<polyline clip-path="url(#clip270)" style="stroke:#9466bd; stroke-linecap:round; stroke-linejoin:round; stroke-width:55; stroke-opacity:1; fill:none" points="3536.47,698.931 3790.52,698.931 "/>
<g clip-path="url(#clip270)">
<text style="fill:#000000; fill-opacity:1; font-family:Courier,Courier New,Lucida Sans Typewriter,Lucida Typewriter,monospace; font-size:163px; text-anchor:start;" transform="rotate(0, 3832.86, 803.184)" x="3832.86" y="803.184">EVA 14</text>
</g>
</svg>
