<?xml version="1.0" encoding="utf-8"?>
<svg xmlns="http://www.w3.org/2000/svg" xmlns:xlink="http://www.w3.org/1999/xlink" width="1200" height="1200" viewBox="0 0 4800 4800">
<defs>
  <clipPath id="clip210">
    <rect x="0" y="0" width="4800" height="4800"/>
  </clipPath>
</defs>
<path clip-path="url(#clip210)" d="M0 4800 L4800 4800 L4800 0 L0 0  Z" fill="#ffffff" fill-rule="evenodd" fill-opacity="1"/>
<defs>
  <clipPath id="clip211">
    <rect x="960" y="480" width="3361" height="3361"/>
  </clipPath>
</defs>
<path clip-path="url(#clip210)" d="M800.321 4247.76 L4611.02 4247.76 L4611.02 488.492 L800.321 488.492  Z" fill="#ffffff" fill-rule="evenodd" fill-opacity="1"/>
<defs>
  <clipPath id="clip212">
    <rect x="800" y="488" width="3812" height="3760"/>
  </clipPath>
</defs>
<polyline clip-path="url(#clip212)" style="stroke:#000000; stroke-linecap:round; stroke-linejoin:round; stroke-width:2; stroke-opacity:0.1; fill:none" points="1072.51,4247.76 1072.51,488.492 "/>
<polyline clip-path="url(#clip212)" style="stroke:#000000; stroke-linecap:round; stroke-linejoin:round; stroke-width:2; stroke-opacity:0.1; fill:none" points="1616.9,4247.76 1616.9,488.492 "/>
<polyline clip-path="url(#clip212)" style="stroke:#000000; stroke-linecap:round; stroke-linejoin:round; stroke-width:2; stroke-opacity:0.1; fill:none" points="2161.29,4247.76 2161.29,488.492 "/>
<polyline clip-path="url(#clip212)" style="stroke:#000000; stroke-linecap:round; stroke-linejoin:round; stroke-width:2; stroke-opacity:0.1; fill:none" points="2705.67,4247.76 2705.67,488.492 "/>
<polyline clip-path="url(#clip212)" style="stroke:#000000; stroke-linecap:round; stroke-linejoin:round; stroke-width:2; stroke-opacity:0.1; fill:none" points="3250.06,4247.76 3250.06,488.492 "/>
<polyline clip-path="url(#clip212)" style="stroke:#000000; stroke-linecap:round; stroke-linejoin:round; stroke-width:2; stroke-opacity:0.1; fill:none" points="3794.44,4247.76 3794.44,488.492 "/>
<polyline clip-path="url(#clip212)" style="stroke:#000000; stroke-linecap:round; stroke-linejoin:round; stroke-width:2; stroke-opacity:0.1; fill:none" points="4338.83,4247.76 4338.83,488.492 "/>
<polyline clip-path="url(#clip212)" style="stroke:#000000; stroke-linecap:round; stroke-linejoin:round; stroke-width:2; stroke-opacity:0.1; fill:none" points="1072.51,4247.76 1072.51,488.492 "/>
<polyline clip-path="url(#clip212)" style="stroke:#000000; stroke-linecap:round; stroke-linejoin:round; stroke-width:2; stroke-opacity:0.1; fill:none" points="1616.9,4247.76 1616.9,488.492 "/>
<polyline clip-path="url(#clip212)" style="stroke:#000000; stroke-linecap:round; stroke-linejoin:round; stroke-width:2; stroke-opacity:0.1; fill:none" points="2161.29,4247.76 2161.29,488.492 "/>
<polyline clip-path="url(#clip212)" style="stroke:#000000; stroke-linecap:round; stroke-linejoin:round; stroke-width:2; stroke-opacity:0.1; fill:none" points="2705.67,4247.76 2705.67,488.492 "/>
<polyline clip-path="url(#clip212)" style="stroke:#000000; stroke-linecap:round; stroke-linejoin:round; stroke-width:2; stroke-opacity:0.1; fill:none" points="3250.06,4247.76 3250.06,488.492 "/>
<polyline clip-path="url(#clip212)" style="stroke:#000000; stroke-linecap:round; stroke-linejoin:round; stroke-width:2; stroke-opacity:0.1; fill:none" points="3794.44,4247.76 3794.44,488.492 "/>
<polyline clip-path="url(#clip212)" style="stroke:#000000; stroke-linecap:round; stroke-linejoin:round; stroke-width:2; stroke-opacity:0.1; fill:none" points="4338.83,4247.76 4338.83,488.492 "/>
<polyline clip-path="url(#clip210)" style="stroke:#000000; stroke-linecap:round; stroke-linejoin:round; stroke-width:4; stroke-opacity:1; fill:none" points="800.321,4247.76 4611.02,4247.76 "/>
<polyline clip-path="url(#clip210)" style="stroke:#000000; stroke-linecap:round; stroke-linejoin:round; stroke-width:4; stroke-opacity:1; fill:none" points="800.321,488.492 4611.02,488.492 "/>
<polyline clip-path="url(#clip210)" style="stroke:#000000; stroke-linecap:round; stroke-linejoin:round; stroke-width:4; stroke-opacity:1; fill:none" points="1072.51,4247.76 1072.51,4228.86 "/>
<polyline clip-path="url(#clip210)" style="stroke:#000000; stroke-linecap:round; stroke-linejoin:round; stroke-width:4; stroke-opacity:1; fill:none" points="1616.9,4247.76 1616.9,4228.86 "/>
<polyline clip-path="url(#clip210)" style="stroke:#000000; stroke-linecap:round; stroke-linejoin:round; stroke-width:4; stroke-opacity:1; fill:none" points="2161.29,4247.76 2161.29,4228.86 "/>
<polyline clip-path="url(#clip210)" style="stroke:#000000; stroke-linecap:round; stroke-linejoin:round; stroke-width:4; stroke-opacity:1; fill:none" points="2705.67,4247.76 2705.67,4228.86 "/>
<polyline clip-path="url(#clip210)" style="stroke:#000000; stroke-linecap:round; stroke-linejoin:round; stroke-width:4; stroke-opacity:1; fill:none" points="3250.06,4247.76 3250.06,4228.86 "/>
<polyline clip-path="url(#clip210)" style="stroke:#000000; stroke-linecap:round; stroke-linejoin:round; stroke-width:4; stroke-opacity:1; fill:none" points="3794.44,4247.76 3794.44,4228.86 "/>
<polyline clip-path="url(#clip210)" style="stroke:#000000; stroke-linecap:round; stroke-linejoin:round; stroke-width:4; stroke-opacity:1; fill:none" points="4338.83,4247.76 4338.83,4228.86 "/>
<polyline clip-path="url(#clip210)" style="stroke:#000000; stroke-linecap:round; stroke-linejoin:round; stroke-width:4; stroke-opacity:1; fill:none" points="1072.51,488.492 1072.51,507.389 "/>
<polyline clip-path="url(#clip210)" style="stroke:#000000; stroke-linecap:round; stroke-linejoin:round; stroke-width:4; stroke-opacity:1; fill:none" points="1616.9,488.492 1616.9,507.389 "/>
<polyline clip-path="url(#clip210)" style="stroke:#000000; stroke-linecap:round; stroke-linejoin:round; stroke-width:4; stroke-opacity:1; fill:none" points="2161.29,488.492 2161.29,507.389 "/>
<polyline clip-path="url(#clip210)" style="stroke:#000000; stroke-linecap:round; stroke-linejoin:round; stroke-width:4; stroke-opacity:1; fill:none" points="2705.67,488.492 2705.67,507.389 "/>
<polyline clip-path="url(#clip210)" style="stroke:#000000; stroke-linecap:round; stroke-linejoin:round; stroke-width:4; stroke-opacity:1; fill:none" points="3250.06,488.492 3250.06,507.389 "/>
<polyline clip-path="url(#clip210)" style="stroke:#000000; stroke-linecap:round; stroke-linejoin:round; stroke-width:4; stroke-opacity:1; fill:none" points="3794.44,488.492 3794.44,507.389 "/>
<polyline clip-path="url(#clip210)" style="stroke:#000000; stroke-linecap:round; stroke-linejoin:round; stroke-width:4; stroke-opacity:1; fill:none" points="4338.83,488.492 4338.83,507.389 "/>
<g clip-path="url(#clip210)">
<text style="fill:#000000; fill-opacity:1; font-family:Courier,Courier New,Lucida Sans Typewriter,Lucida Typewriter,monospace; font-size:163px; text-anchor:middle;" transform="rotate(0, 1072.51, 4404.6)" x="1072.51" y="4404.6">−10</text>
</g>
<g clip-path="url(#clip210)">
<text style="fill:#000000; fill-opacity:1; font-family:Courier,Courier New,Lucida Sans Typewriter,Lucida Typewriter,monospace; font-size:163px; text-anchor:middle;" transform="rotate(0, 1616.9, 4404.6)" x="1616.9" y="4404.6">0</text>
</g>
<g clip-path="url(#clip210)">
<text style="fill:#000000; fill-opacity:1; font-family:Courier,Courier New,Lucida Sans Typewriter,Lucida Typewriter,monospace; font-size:163px; text-anchor:middle;" transform="rotate(0, 2161.29, 4404.6)" x="2161.29" y="4404.6">10</text>
</g>
<g clip-path="url(#clip210)">
<text style="fill:#000000; fill-opacity:1; font-family:Courier,Courier New,Lucida Sans Typewriter,Lucida Typewriter,monospace; font-size:163px; text-anchor:middle;" transform="rotate(0, 2705.67, 4404.6)" x="2705.67" y="4404.6">20</text>
</g>
<g clip-path="url(#clip210)">
<text style="fill:#000000; fill-opacity:1; font-family:Courier,Courier New,Lucida Sans Typewriter,Lucida Typewriter,monospace; font-size:163px; text-anchor:middle;" transform="rotate(0, 3250.06, 4404.6)" x="3250.06" y="4404.6">30</text>
</g>
<g clip-path="url(#clip210)">
<text style="fill:#000000; fill-opacity:1; font-family:Courier,Courier New,Lucida Sans Typewriter,Lucida Typewriter,monospace; font-size:163px; text-anchor:middle;" transform="rotate(0, 3794.44, 4404.6)" x="3794.44" y="4404.6">40</text>
</g>
<g clip-path="url(#clip210)">
<text style="fill:#000000; fill-opacity:1; font-family:Courier,Courier New,Lucida Sans Typewriter,Lucida Typewriter,monospace; font-size:163px; text-anchor:middle;" transform="rotate(0, 4338.83, 4404.6)" x="4338.83" y="4404.6">50</text>
</g>
<g clip-path="url(#clip210)">
<text style="fill:#000000; fill-opacity:1; font-family:Courier,Courier New,Lucida Sans Typewriter,Lucida Typewriter,monospace; font-size:163px; text-anchor:middle;" transform="rotate(0, 2705.67, 4584.53)" x="2705.67" y="4584.53">Allocated avoided cost (EUR/h)</text>
</g>
<polyline clip-path="url(#clip212)" style="stroke:#000000; stroke-linecap:round; stroke-linejoin:round; stroke-width:2; stroke-opacity:0.1; fill:none" points="800.321,4247.76 4611.02,4247.76 "/>
<polyline clip-path="url(#clip212)" style="stroke:#000000; stroke-linecap:round; stroke-linejoin:round; stroke-width:2; stroke-opacity:0.1; fill:none" points="800.321,2994.67 4611.02,2994.67 "/>
<polyline clip-path="url(#clip212)" style="stroke:#000000; stroke-linecap:round; stroke-linejoin:round; stroke-width:2; stroke-opacity:0.1; fill:none" points="800.321,1741.58 4611.02,1741.58 "/>
<polyline clip-path="url(#clip212)" style="stroke:#000000; stroke-linecap:round; stroke-linejoin:round; stroke-width:2; stroke-opacity:0.1; fill:none" points="800.321,488.492 4611.02,488.492 "/>
<polyline clip-path="url(#clip212)" style="stroke:#000000; stroke-linecap:round; stroke-linejoin:round; stroke-width:2; stroke-opacity:0.1; fill:none" points="800.321,4247.76 4611.02,4247.76 "/>
<polyline clip-path="url(#clip212)" style="stroke:#000000; stroke-linecap:round; stroke-linejoin:round; stroke-width:2; stroke-opacity:0.1; fill:none" points="800.321,2994.67 4611.02,2994.67 "/>
<polyline clip-path="url(#clip212)" style="stroke:#000000; stroke-linecap:round; stroke-linejoin:round; stroke-width:2; stroke-opacity:0.1; fill:none" points="800.321,1741.58 4611.02,1741.58 "/>
<polyline clip-path="url(#clip212)" style="stroke:#000000; stroke-linecap:round; stroke-linejoin:round; stroke-width:2; stroke-opacity:0.1; fill:none" points="800.321,488.492 4611.02,488.492 "/>
<polyline clip-path="url(#clip210)" style="stroke:#000000; stroke-linecap:round; stroke-linejoin:round; stroke-width:4; stroke-opacity:1; fill:none" points="800.321,4247.76 800.321,488.492 "/>
<polyline clip-path="url(#clip210)" style="stroke:#000000; stroke-linecap:round; stroke-linejoin:round; stroke-width:4; stroke-opacity:1; fill:none" points="4611.02,4247.76 4611.02,488.492 "/>
<polyline clip-path="url(#clip210)" style="stroke:#000000; stroke-linecap:round; stroke-linejoin:round; stroke-width:4; stroke-opacity:1; fill:none" points="800.321,4247.76 819.219,4247.76 "/>
<polyline clip-path="url(#clip210)" style="stroke:#000000; stroke-linecap:round; stroke-linejoin:round; stroke-width:4; stroke-opacity:1; fill:none" points="800.321,2994.67 819.219,2994.67 "/>
<polyline clip-path="url(#clip210)" style="stroke:#000000; stroke-linecap:round; stroke-linejoin:round; stroke-width:4; stroke-opacity:1; fill:none" points="800.321,1741.58 819.219,1741.58 "/>
<polyline clip-path="url(#clip210)" style="stroke:#000000; stroke-linecap:round; stroke-linejoin:round; stroke-width:4; stroke-opacity:1; fill:none" points="800.321,488.492 819.219,488.492 "/>
<polyline clip-path="url(#clip210)" style="stroke:#000000; stroke-linecap:round; stroke-linejoin:round; stroke-width:4; stroke-opacity:1; fill:none" points="4611.02,4247.76 4592.13,4247.76 "/>
<polyline clip-path="url(#clip210)" style="stroke:#000000; stroke-linecap:round; stroke-linejoin:round; stroke-width:4; stroke-opacity:1; fill:none" points="4611.02,2994.67 4592.13,2994.67 "/>
<polyline clip-path="url(#clip210)" style="stroke:#000000; stroke-linecap:round; stroke-linejoin:round; stroke-width:4; stroke-opacity:1; fill:none" points="4611.02,1741.58 4592.13,1741.58 "/>
<polyline clip-path="url(#clip210)" style="stroke:#000000; stroke-linecap:round; stroke-linejoin:round; stroke-width:4; stroke-opacity:1; fill:none" points="4611.02,488.492 4592.13,488.492 "/>
<g clip-path="url(#clip210)">
<text style="fill:#000000; fill-opacity:1; font-family:Courier,Courier New,Lucida Sans Typewriter,Lucida Typewriter,monospace; font-size:163px; text-anchor:middle;" transform="rotate(0, 525.389, 4295.26)" x="525.389" y="4295.26">0.00</text>
</g>
<g clip-path="url(#clip210)">
<text style="fill:#000000; fill-opacity:1; font-family:Courier,Courier New,Lucida Sans Typewriter,Lucida Typewriter,monospace; font-size:163px; text-anchor:middle;" transform="rotate(0, 525.389, 3042.17)" x="525.389" y="3042.17">0.05</text>
</g>
<g clip-path="url(#clip210)">
<text style="fill:#000000; fill-opacity:1; font-family:Courier,Courier New,Lucida Sans Typewriter,Lucida Typewriter,monospace; font-size:163px; text-anchor:middle;" transform="rotate(0, 525.389, 1789.08)" x="525.389" y="1789.08">0.10</text>
</g>
<g clip-path="url(#clip210)">
<text style="fill:#000000; fill-opacity:1; font-family:Courier,Courier New,Lucida Sans Typewriter,Lucida Typewriter,monospace; font-size:163px; text-anchor:middle;" transform="rotate(0, 525.389, 535.992)" x="525.389" y="535.992">0.15</text>
</g>
<g clip-path="url(#clip210)">
<text style="fill:#000000; fill-opacity:1; font-family:Courier,Courier New,Lucida Sans Typewriter,Lucida Typewriter,monospace; font-size:163px; text-anchor:start;" transform="rotate(0, 879.281, 146.818)" x="879.281" y="146.818">Density of the allocation solutions </text>
</g>
<g clip-path="url(#clip210)">
<text style="fill:#000000; fill-opacity:1; font-family:Courier,Courier New,Lucida Sans Typewriter,Lucida Typewriter,monospace; font-size:163px; text-anchor:start;" transform="rotate(0, 1031.48, 288.702)" x="1031.48" y="288.702">(accuracy-filtered Shapley value)</text>
</g>
<path clip-path="url(#clip212)" d="M1465.48 4247.73 L1477.81 4247.64 L1490.13 4247.38 L1502.46 4246.62 L1514.78 4244.7 L1527.1 4240.26 L1539.43 4231.05 L1551.75 4213.84 L1564.08 4184.91 L1576.4 4141.19 L1588.73 4081.89 L1601.05 4009.83 L1613.38 3931.51 L1625.7 3855.47 L1638.03 3789.37 L1650.35 3737.25 L1662.67 3698.45 L1675 3668.87 L1687.32 3643.62 L1699.65 3619.82 L1711.97 3597.72 L1724.3 3579.91 L1736.62 3569.19 L1748.95 3566.36 L1761.27 3569.36 L1773.6 3573.98 L1785.92 3575.53 L1798.24 3570.41 L1810.57 3556.66 L1822.89 3533.74 L1835.22 3502.24 L1847.54 3464.21 L1859.87 3423.59 L1872.19 3386.17 L1884.52 3358.37 L1896.84 3345.22 L1909.17 3348.53 L1921.49 3366.09 L1933.81 3392.21 L1946.14 3419.02 L1958.46 3438.17 L1970.79 3442.45 L1983.11 3427.38 L1995.44 3392.27 L2007.76 3340.56 L2020.09 3278.9 L2032.41 3215.31 L2044.74 3157.2 L2057.06 3109.9 L2069.38 3075.95 L2081.71 3054.69 L2094.03 3042.24 L2106.36 3032.23 L2118.68 3018.06 L2131.01 2996.19 L2143.33 2968.48 L2155.66 2941.65 L2167.98 2923.67 L2180.31 2919.19 L2192.63 2927.02 L2204.95 2941.43 L2217.28 2956.21 L2229.6 2968.35 L2241.93 2978.92 L2254.25 2990.76 L2266.58 3005.05 L2278.9 3019.6 L2291.23 3029.94 L2303.55 3032.34 L2315.88 3026.19 L2328.2 3014.19 L2340.53 3000.31 L2352.85 2987.42 L2365.17 2976.26 L2377.5 2966.12 L2389.82 2956.19 L2402.15 2946.54 L2414.47 2937.83 L2426.8 2930.69 L2439.12 2925.04 L2451.45 2920.13 L2463.77 2914.85 L2476.1 2908.17 L2488.42 2899.59 L2500.74 2889.36 L2513.07 2878.55 L2525.39 2868.62 L2537.72 2860.76 L2550.04 2855.38 L2562.37 2852.17 L2574.69 2850.86 L2587.02 2852 L2599.34 2857.58 L2611.67 2871.13 L2623.99 2897.24 L2636.31 2940.35 L2648.64 3002.65 L2660.96 3082 L2673.29 3171.08 L2685.61 3258.73 L2697.94 3333.51 L2710.26 3387.78 L2722.59 3420.54 L2734.91 3437.45 L2747.24 3448.24 L2759.56 3462.69 L2771.88 3487.09 L2784.21 3522.87 L2796.53 3567.38 L2808.86 3616.25 L2821.18 3665.72 L2833.51 3713.89 L2845.83 3760.66 L2858.16 3806.73 L2870.48 3852.31 L2882.81 3896.31 L2895.13 3936.27 L2907.45 3968.98 L2919.78 3991.54 L2932.1 4002.5 L2944.43 4002.76 L2956.75 3995.84 L2969.08 3987.22 L2981.4 3982.63 L2993.73 3985.97 L3006.05 3997.85 L3018.38 4015.72 L3030.7 4035.42 L3043.02 4053.35 L3055.35 4067.89 L3067.67 4079.54 L3080 4090.03 L3092.32 4101.06 L3104.65 4113.47 L3116.97 4127.01 L3129.3 4140.69 L3141.62 4153.28 L3153.95 4163.86 L3166.27 4172.12 L3178.59 4178.24 L3190.92 4182.72 L3203.24 4186.05 L3215.57 4188.67 L3227.89 4190.95 L3240.22 4193.38 L3252.54 4196.5 L3264.87 4200.76 L3277.19 4206.16 L3289.52 4212.11 L3301.84 4217.51 L3314.16 4221.26 L3326.49 4222.72 L3338.81 4222.12 L3351.14 4220.4 L3363.46 4218.86 L3375.79 4218.5 L3388.11 4219.65 L3400.44 4221.91 L3412.76 4224.49 L3425.09 4226.72 L3437.41 4228.38 L3449.74 4229.72 L3462.06 4231.14 L3474.38 4232.83 L3486.71 4234.53 L3499.03 4235.55 L3511.36 4235.06 L3523.68 4232.38 L3536.01 4227.26 L3548.33 4220.05 L3560.66 4211.73 L3572.98 4203.74 L3585.31 4197.67 L3597.63 4194.73 L3609.95 4195.24 L3622.28 4198.48 L3634.6 4202.95 L3646.93 4207.07 L3659.25 4209.92 L3671.58 4211.53 L3683.9 4212.67 L3696.23 4214.19 L3708.55 4216.51 L3720.88 4219.43 L3733.2 4222.46 L3745.52 4225.26 L3757.85 4227.83 L3770.17 4230.43 L3782.5 4233.31 L3794.82 4236.44 L3807.15 4239.56 L3819.47 4242.33 L3831.8 4244.48 L3844.12 4245.97 L3856.45 4246.88 L3868.77 4247.37 L3881.09 4247.6 L3893.42 4247.7 L3905.74 4247.74 L3918.07 4247.75 L3918.07 4247.76 L3905.74 4247.76 L3893.42 4247.76 L3881.09 4247.76 L3868.77 4247.76 L3856.45 4247.76 L3844.12 4247.76 L3831.8 4247.76 L3819.47 4247.76 L3807.15 4247.76 L3794.82 4247.76 L3782.5 4247.76 L3770.17 4247.76 L3757.85 4247.76 L3745.52 4247.76 L3733.2 4247.76 L3720.88 4247.76 L3708.55 4247.76 L3696.23 4247.76 L3683.9 4247.76 L3671.58 4247.76 L3659.25 4247.76 L3646.93 4247.76 L3634.6 4247.76 L3622.28 4247.76 L3609.95 4247.76 L3597.63 4247.76 L3585.31 4247.76 L3572.98 4247.76 L3560.66 4247.76 L3548.33 4247.76 L3536.01 4247.76 L3523.68 4247.76 L3511.36 4247.76 L3499.03 4247.76 L3486.71 4247.76 L3474.38 4247.76 L3462.06 4247.76 L3449.74 4247.76 L3437.41 4247.76 L3425.09 4247.76 L3412.76 4247.76 L3400.44 4247.76 L3388.11 4247.76 L3375.79 4247.76 L3363.46 4247.76 L3351.14 4247.76 L3338.81 4247.76 L3326.49 4247.76 L3314.16 4247.76 L3301.84 4247.76 L3289.52 4247.76 L3277.19 4247.76 L3264.87 4247.76 L3252.54 4247.76 L3240.22 4247.76 L3227.89 4247.76 L3215.57 4247.76 L3203.24 4247.76 L3190.92 4247.76 L3178.59 4247.76 L3166.27 4247.76 L3153.95 4247.76 L3141.62 4247.76 L3129.3 4247.76 L3116.97 4247.76 L3104.65 4247.76 L3092.32 4247.76 L3080 4247.76 L3067.67 4247.76 L3055.35 4247.76 L3043.02 4247.76 L3030.7 4247.76 L3018.38 4247.76 L3006.05 4247.76 L2993.73 4247.76 L2981.4 4247.76 L2969.08 4247.76 L2956.75 4247.76 L2944.43 4247.76 L2932.1 4247.76 L2919.78 4247.76 L2907.45 4247.76 L2895.13 4247.76 L2882.81 4247.76 L2870.48 4247.76 L2858.16 4247.76 L2845.83 4247.76 L2833.51 4247.76 L2821.18 4247.76 L2808.86 4247.76 L2796.53 4247.76 L2784.21 4247.76 L2771.88 4247.76 L2759.56 4247.76 L2747.24 4247.76 L2734.91 4247.76 L2722.59 4247.76 L2710.26 4247.76 L2697.94 4247.76 L2685.61 4247.76 L2673.29 4247.76 L2660.96 4247.76 L2648.64 4247.76 L2636.31 4247.76 L2623.99 4247.76 L2611.67 4247.76 L2599.34 4247.76 L2587.02 4247.76 L2574.69 4247.76 L2562.37 4247.76 L2550.04 4247.76 L2537.72 4247.76 L2525.39 4247.76 L2513.07 4247.76 L2500.74 4247.76 L2488.42 4247.76 L2476.1 4247.76 L2463.77 4247.76 L2451.45 4247.76 L2439.12 4247.76 L2426.8 4247.76 L2414.47 4247.76 L2402.15 4247.76 L2389.82 4247.76 L2377.5 4247.76 L2365.17 4247.76 L2352.85 4247.76 L2340.53 4247.76 L2328.2 4247.76 L2315.88 4247.76 L2303.55 4247.76 L2291.23 4247.76 L2278.9 4247.76 L2266.58 4247.76 L2254.25 4247.76 L2241.93 4247.76 L2229.6 4247.76 L2217.28 4247.76 L2204.95 4247.76 L2192.63 4247.76 L2180.31 4247.76 L2167.98 4247.76 L2155.66 4247.76 L2143.33 4247.76 L2131.01 4247.76 L2118.68 4247.76 L2106.36 4247.76 L2094.03 4247.76 L2081.71 4247.76 L2069.38 4247.76 L2057.06 4247.76 L2044.74 4247.76 L2032.41 4247.76 L2020.09 4247.76 L2007.76 4247.76 L1995.44 4247.76 L1983.11 4247.76 L1970.79 4247.76 L1958.46 4247.76 L1946.14 4247.76 L1933.81 4247.76 L1921.49 4247.76 L1909.17 4247.76 L1896.84 4247.76 L1884.52 4247.76 L1872.19 4247.76 L1859.87 4247.76 L1847.54 4247.76 L1835.22 4247.76 L1822.89 4247.76 L1810.57 4247.76 L1798.24 4247.76 L1785.92 4247.76 L1773.6 4247.76 L1761.27 4247.76 L1748.95 4247.76 L1736.62 4247.76 L1724.3 4247.76 L1711.97 4247.76 L1699.65 4247.76 L1687.32 4247.76 L1675 4247.76 L1662.67 4247.76 L1650.35 4247.76 L1638.03 4247.76 L1625.7 4247.76 L1613.38 4247.76 L1601.05 4247.76 L1588.73 4247.76 L1576.4 4247.76 L1564.08 4247.76 L1551.75 4247.76 L1539.43 4247.76 L1527.1 4247.76 L1514.78 4247.76 L1502.46 4247.76 L1490.13 4247.76 L1477.81 4247.76 L1465.48 4247.76  Z" fill="#7e7e7e" fill-rule="evenodd" fill-opacity="0.4"/>
<polyline clip-path="url(#clip212)" style="stroke:#7e7e7e; stroke-linecap:round; stroke-linejoin:round; stroke-width:24; stroke-opacity:1; fill:none" points="1465.48,4247.73 1477.81,4247.64 1490.13,4247.38 1502.46,4246.62 1514.78,4244.7 1527.1,4240.26 1539.43,4231.05 1551.75,4213.84 1564.08,4184.91 1576.4,4141.19 1588.73,4081.89 1601.05,4009.83 1613.38,3931.51 1625.7,3855.47 1638.03,3789.37 1650.35,3737.25 1662.67,3698.45 1675,3668.87 1687.32,3643.62 1699.65,3619.82 1711.97,3597.72 1724.3,3579.91 1736.62,3569.19 1748.95,3566.36 1761.27,3569.36 1773.6,3573.98 1785.92,3575.53 1798.24,3570.41 1810.57,3556.66 1822.89,3533.74 1835.22,3502.24 1847.54,3464.21 1859.87,3423.59 1872.19,3386.17 1884.52,3358.37 1896.84,3345.22 1909.17,3348.53 1921.49,3366.09 1933.81,3392.21 1946.14,3419.02 1958.46,3438.17 1970.79,3442.45 1983.11,3427.38 1995.44,3392.27 2007.76,3340.56 2020.09,3278.9 2032.41,3215.31 2044.74,3157.2 2057.06,3109.9 2069.38,3075.95 2081.71,3054.69 2094.03,3042.24 2106.36,3032.23 2118.68,3018.06 2131.01,2996.19 2143.33,2968.48 2155.66,2941.65 2167.98,2923.67 2180.31,2919.19 2192.63,2927.02 2204.95,2941.43 2217.28,2956.21 2229.6,2968.35 2241.93,2978.92 2254.25,2990.76 2266.58,3005.05 2278.9,3019.6 2291.23,3029.94 2303.55,3032.34 2315.88,3026.19 2328.2,3014.19 2340.53,3000.31 2352.85,2987.42 2365.17,2976.26 2377.5,2966.12 2389.82,2956.19 2402.15,2946.54 2414.47,2937.83 2426.8,2930.69 2439.12,2925.04 2451.45,2920.13 2463.77,2914.85 2476.1,2908.17 2488.42,2899.59 2500.74,2889.36 2513.07,2878.55 2525.39,2868.62 2537.72,2860.76 2550.04,2855.38 2562.37,2852.17 2574.69,2850.86 2587.02,2852 2599.34,2857.58 2611.67,2871.13 2623.99,2897.24 2636.31,2940.35 2648.64,3002.65 2660.96,3082 2673.29,3171.08 2685.61,3258.73 2697.94,3333.51 2710.26,3387.78 2722.59,3420.54 2734.91,3437.45 2747.24,3448.24 2759.56,3462.69 2771.88,3487.09 2784.21,3522.87 2796.53,3567.38 2808.86,3616.25 2821.18,3665.72 2833.51,3713.89 2845.83,3760.66 2858.16,3806.73 2870.48,3852.31 2882.81,3896.31 2895.13,3936.27 2907.45,3968.98 2919.78,3991.54 2932.1,4002.5 2944.43,4002.76 2956.75,3995.84 2969.08,3987.22 2981.4,3982.63 2993.73,3985.97 3006.05,3997.85 3018.38,4015.72 3030.7,4035.42 3043.02,4053.35 3055.35,4067.89 3067.67,4079.54 3080,4090.03 3092.32,4101.06 3104.65,4113.47 3116.97,4127.01 3129.3,4140.69 3141.62,4153.28 3153.95,4163.86 3166.27,4172.12 3178.59,4178.24 3190.92,4182.72 3203.24,4186.05 3215.57,4188.67 3227.89,4190.95 3240.22,4193.38 3252.54,4196.5 3264.87,4200.76 3277.19,4206.16 3289.52,4212.11 3301.84,4217.51 3314.16,4221.26 3326.49,4222.72 3338.81,4222.12 3351.14,4220.4 3363.46,4218.86 3375.79,4218.5 3388.11,4219.65 3400.44,4221.91 3412.76,4224.49 3425.09,4226.72 3437.41,4228.38 3449.74,4229.72 3462.06,4231.14 3474.38,4232.83 3486.71,4234.53 3499.03,4235.55 3511.36,4235.06 3523.68,4232.38 3536.01,4227.26 3548.33,4220.05 3560.66,4211.73 3572.98,4203.74 3585.31,4197.67 3597.63,4194.73 3609.95,4195.24 3622.28,4198.48 3634.6,4202.95 3646.93,4207.07 3659.25,4209.92 3671.58,4211.53 3683.9,4212.67 3696.23,4214.19 3708.55,4216.51 3720.88,4219.43 3733.2,4222.46 3745.52,4225.26 3757.85,4227.83 3770.17,4230.43 3782.5,4233.31 3794.82,4236.44 3807.15,4239.56 3819.47,4242.33 3831.8,4244.48 3844.12,4245.97 3856.45,4246.88 3868.77,4247.37 3881.09,4247.6 3893.42,4247.7 3905.74,4247.74 3918.07,4247.75 "/>
<path clip-path="url(#clip210)" d="M3494.13 897.568 L4484 897.568 L4484 613.8 L3494.13 613.8  Z" fill="#ffffff" fill-rule="evenodd" fill-opacity="1"/>
<polyline clip-path="url(#clip210)" style="stroke:#000000; stroke-linecap:round; stroke-linejoin:round; stroke-width:4; stroke-opacity:1; fill:none" points="3494.13,897.568 4484,897.568 4484,613.8 3494.13,613.8 3494.13,897.568 "/>
<path clip-path="url(#clip210)" d="M3536.47 812.437 L3790.52 812.437 L3790.52 698.931 L3536.47 698.931 L3536.47 812.437  Z" fill="#7e7e7e" fill-rule="evenodd" fill-opacity="0.4"/>
<polyline clip-path="url(#clip210)" style="stroke:#7e7e7e; stroke-linecap:round; stroke-linejoin:round; stroke-width:55; stroke-opacity:1; fill:none" points="3536.47,698.931 3790.52,698.931 "/>
<g clip-path="url(#clip210)">
<text style="fill:#000000; fill-opacity:1; font-family:Courier,Courier New,Lucida Sans Typewriter,Lucida Typewriter,monospace; font-size:163px; text-anchor:start;" transform="rotate(0, 3832.86, 803.184)" x="3832.86" y="803.184">EVA 32</text>
</g>
</svg>
